<svg width="3149" height="2530" viewBox="0 0 3149 2530" fill="none" xmlns="http://www.w3.org/2000/svg">
<g clip-path="url(#clip0_1861_3114)">
<path d="M2063.82 475.462C2064.68 475.535 2065.53 475.607 2066.42 475.682C2090.64 478.412 2116.06 505.111 2130.79 522.715C2132.07 524.335 2133.33 525.966 2134.58 527.603C2135 528.137 2135.41 528.67 2135.84 529.219C2182.88 589.675 2204 668.856 2254.09 1035.35C2254.17 1037.01 2254.17 1037.01 2254.26 1038.7C2254.52 1043.86 2254.76 1049.02 2254.98 1054.18C2255.06 1055.99 2255.15 1057.8 2255.23 1059.61C2255.26 1060.42 2255.29 1061.23 2255.32 1062.06C2255.65 1068.8 2257.61 1073.27 2261.31 1078.95C2261.87 1079.81 2262.42 1080.67 2263 1081.56C2263.59 1082.46 2264.18 1083.36 2264.78 1084.29C2265.4 1085.24 2266.01 1086.19 2266.63 1087.14C2267.84 1089.02 2269.05 1090.89 2270.26 1092.76C2286.54 1117.92 2301.75 1143.85 2315.43 1170.51C2316.44 1172.45 2317.46 1174.38 2318.5 1176.3C2350.36 1235.39 2374.72 1299.15 2391.19 1364.18C2391.43 1365.11 2391.43 1365.11 2391.67 1366.05C2393.54 1373.41 2395.14 1380.76 2396.44 1388.25C2396.7 1389.7 2396.96 1391.16 2397.23 1392.61C2397.73 1395.38 2398.17 1398.14 2398.57 1400.92C2399.61 1407.11 2400.69 1411.39 2405.86 1415.29C2407.39 1416.32 2408.93 1417.27 2410.51 1418.19C2420.34 1423.98 2427.3 1433.48 2434.11 1442.4C2434.45 1442.84 2434.79 1443.28 2435.14 1443.74C2436.16 1445.13 2436.16 1445.13 2437.11 1446.66C2439.8 1450.88 2442.57 1452.47 2447.16 1454.32C2474.4 1466.27 2492.83 1490.39 2503.51 1517.55C2504.74 1520.86 2505.85 1524.19 2506.92 1527.54C2507.14 1528.23 2507.36 1528.91 2507.59 1529.62C2510.58 1539.15 2512.63 1548.81 2514.29 1558.66C2514.46 1559.62 2514.62 1560.58 2514.8 1561.57C2518.03 1581.97 2518.09 1602.72 2518.21 1623.32C2518.53 1673.16 2523.03 1721.91 2531.77 1770.98C2541.18 1823.82 2548.72 1876.95 2553.83 1930.38C2553.91 1931.22 2553.99 1932.05 2554.08 1932.92C2556.08 1953.61 2557.11 1974.38 2558.3 1995.14C2559.16 1995.13 2559.16 1995.13 2560.04 1995.13C2573.95 1995.05 2587.86 1995 2601.78 1994.96C2608.51 1994.94 2615.24 1994.92 2621.97 1994.88C2627.83 1994.85 2633.7 1994.83 2639.57 1994.82C2642.67 1994.82 2645.78 1994.8 2648.88 1994.78C2652.35 1994.75 2655.82 1994.75 2659.29 1994.75C2660.32 1994.74 2661.34 1994.73 2662.39 1994.72C2669.47 1994.75 2673.82 1995.84 2679.4 2000.39C2683.78 2005.73 2685.26 2010.11 2684.98 2017.09C2684.23 2022.85 2681.55 2026.45 2677.23 2030.18C2670.75 2034.12 2664.8 2034.18 2657.4 2034.14C2656.25 2034.14 2655.1 2034.15 2653.95 2034.15C2650.79 2034.16 2647.63 2034.15 2644.46 2034.15C2641.01 2034.14 2637.56 2034.15 2634.11 2034.15C2628.03 2034.16 2621.96 2034.16 2615.88 2034.16C2606.79 2034.15 2597.69 2034.15 2588.6 2034.16C2573.1 2034.18 2557.6 2034.18 2542.1 2034.17C2526.38 2034.17 2510.67 2034.17 2494.96 2034.18C2493.47 2034.18 2493.47 2034.18 2491.95 2034.18C2486.9 2034.18 2481.84 2034.19 2476.78 2034.19C2466.42 2034.19 2456.05 2034.2 2445.68 2034.2C2444.64 2034.2 2443.6 2034.2 2442.52 2034.2C2419.57 2034.21 2396.62 2034.22 2373.67 2034.22C2335.14 2034.22 2296.61 2034.23 2258.08 2034.26C2257.24 2034.26 2257.24 2034.26 2256.38 2034.26C2242.65 2034.26 2228.92 2034.27 2215.19 2034.28C2193.66 2034.29 2172.13 2034.31 2150.6 2034.32C2148.25 2034.32 2145.9 2034.32 2143.54 2034.32C2088.09 2034.36 2032.63 2034.38 1977.18 2034.41C1974.11 2034.41 1971.04 2034.41 1967.98 2034.41C1911.29 2034.43 1854.61 2034.45 1797.92 2034.47C1796.08 2034.47 1794.23 2034.47 1792.38 2034.47C1779.47 2034.47 1766.56 2034.47 1753.64 2034.48C1751.8 2034.48 1749.96 2034.48 1748.12 2034.48C1746.89 2034.48 1745.67 2034.48 1744.44 2034.48C1743.83 2034.48 1743.23 2034.48 1742.6 2034.48C1739.53 2034.48 1736.47 2034.48 1733.4 2034.48C1676.78 2034.49 1620.16 2034.51 1563.54 2034.54C1562.37 2034.54 1561.19 2034.54 1560.02 2034.55C1536.18 2034.56 1512.35 2034.58 1488.52 2034.59C1477.09 2034.6 1465.66 2034.61 1454.22 2034.62C1453.09 2034.62 1451.95 2034.62 1450.81 2034.62C1413.98 2034.65 1377.15 2034.65 1340.32 2034.65C1303.8 2034.64 1267.28 2034.65 1230.76 2034.69C1225.72 2034.7 1220.67 2034.7 1215.63 2034.7C1214.64 2034.71 1213.65 2034.71 1212.63 2034.71C1196.96 2034.72 1181.29 2034.72 1165.62 2034.7C1150.22 2034.69 1134.82 2034.7 1119.42 2034.73C1110.39 2034.74 1101.36 2034.75 1092.32 2034.72C1086.33 2034.71 1080.33 2034.72 1074.33 2034.74C1070.93 2034.76 1067.53 2034.76 1064.13 2034.74C1045.51 2034.54 1045.51 2034.54 1028.52 2041.39C1005.11 2051 979.766 2049.24 955.801 2043.17C948.607 2041.19 948.607 2041.19 941.722 2043.45C940.98 2043.92 940.98 2043.92 940.223 2044.39C918.249 2057.03 889.583 2060.03 865.092 2054.01C855.478 2051.25 845.612 2046.93 837.293 2041.39C833.851 2041.73 830.733 2043.05 827.501 2044.23C803.313 2052.51 774.852 2050.98 751.761 2039.97C746.028 2036.9 746.028 2036.9 744.63 2035.5C743.29 2035.42 741.946 2035.4 740.603 2035.41C739.726 2035.41 738.849 2035.41 737.946 2035.41C736.971 2035.41 735.996 2035.42 734.991 2035.42C733.451 2035.42 733.451 2035.42 731.88 2035.42C729.017 2035.43 726.153 2035.43 723.29 2035.44C720.207 2035.45 717.124 2035.46 714.041 2035.46C708.692 2035.47 703.344 2035.48 697.996 2035.49C689.54 2035.51 681.084 2035.52 672.628 2035.53C669.736 2035.54 666.844 2035.54 663.952 2035.54C663.23 2035.54 662.507 2035.54 661.762 2035.54C653.527 2035.55 645.292 2035.57 637.056 2035.58C636.303 2035.58 635.55 2035.58 634.774 2035.58C622.583 2035.6 610.392 2035.63 598.202 2035.65C585.688 2035.68 573.174 2035.7 560.66 2035.71C552.941 2035.71 545.222 2035.73 537.503 2035.75C532.208 2035.77 526.913 2035.77 521.618 2035.77C518.565 2035.77 515.512 2035.78 512.459 2035.79C509.144 2035.81 505.829 2035.81 502.513 2035.8C501.555 2035.81 500.597 2035.82 499.61 2035.83C491.706 2035.79 484.68 2034.84 478.772 2029.24C474.504 2024.53 473.856 2019.74 473.939 2013.6C474.504 2008.64 476.517 2004.57 480.095 2001.09C484.927 1997.3 488.371 1996.71 494.512 1996.72C495.114 1996.72 495.715 1996.72 496.335 1996.71C498.35 1996.71 500.365 1996.72 502.38 1996.72C503.825 1996.72 505.269 1996.72 506.714 1996.72C510.637 1996.72 514.559 1996.73 518.482 1996.73C522.581 1996.74 526.68 1996.74 530.779 1996.74C538.542 1996.74 546.305 1996.75 554.068 1996.76C562.905 1996.77 571.742 1996.77 580.58 1996.78C598.759 1996.78 616.939 1996.8 635.119 1996.82C635.153 1995.84 635.153 1995.84 635.188 1994.84C635.294 1991.85 635.402 1988.86 635.51 1985.87C635.546 1984.84 635.582 1983.81 635.619 1982.75C635.865 1975.96 636.227 1969.24 637.014 1962.49C637.123 1961.54 637.231 1960.58 637.342 1959.6C642.418 1916.7 652.272 1866.86 678.068 1830.93C678.468 1830.37 678.868 1829.81 679.28 1829.23C680.031 1828.2 680.803 1827.18 681.602 1826.18C683.628 1823.44 683.993 1822.05 683.652 1818.64C683.232 1817.19 682.772 1815.75 682.293 1814.32C681.966 1813.31 681.638 1812.29 681.301 1811.25C680.304 1808.19 679.271 1805.15 678.231 1802.11C658.949 1745.62 647.048 1687.08 641.858 1627.62C641.767 1626.59 641.767 1626.59 641.675 1625.54C639.21 1597.12 638.694 1568.67 638.488 1540.16C638.483 1539.4 638.477 1538.64 638.472 1537.86C638.422 1529.91 638.535 1521.98 638.91 1514.04C639.034 1511.38 639.148 1508.73 639.213 1506.08C639.331 1503.16 639.331 1503.16 639.707 1499.84C640.737 1488.63 635.87 1482.05 629.38 1473.3C628.441 1471.99 627.504 1470.68 626.571 1469.36C625.18 1467.4 623.786 1465.45 622.379 1463.5C618.035 1457.48 613.999 1451.3 610.019 1445.04C608.536 1442.71 607.035 1440.39 605.536 1438.07C598.438 1427.03 591.438 1415.94 584.575 1404.76C584.031 1403.88 583.488 1402.99 582.927 1402.08C574.213 1387.92 565.759 1373.63 557.607 1359.14C556.78 1357.67 555.951 1356.2 555.122 1354.73C521.969 1295.91 492.216 1234.07 467.482 1051.54C467.652 1050.41 467.652 1050.41 467.824 1049.26C470.266 1033.75 474.217 1016.8 484.33 1004.45C484.948 1003.65 485.566 1002.85 486.203 1002.03C493.295 993.081 501.299 985.98 510.445 979.217C510.916 978.868 511.388 978.518 511.874 978.159C533.897 962.141 560.261 952.226 586.26 944.736C587.159 944.475 588.058 944.214 588.985 943.946C663.094 922.726 741.783 917.735 818.455 915.163C819.03 915.144 819.605 915.124 820.198 915.104C838.411 914.496 856.562 914.456 874.779 914.864C878.602 914.948 882.425 915.017 886.249 915.083C887.527 915.105 888.806 915.127 890.084 915.149C892.002 915.183 893.92 915.216 895.838 915.248C902.956 915.37 910.07 915.526 917.185 915.764C957.916 917.656 957.916 917.656 992.394 898.136C995.663 895.203 999.161 893.044 1002.99 890.922C1004.07 890.29 1005.15 889.657 1006.23 889.022C1007.24 888.443 1008.24 887.864 1009.25 887.286C1010.31 886.665 1011.38 886.044 1012.44 885.421C1014.02 884.501 1015.59 883.582 1017.17 882.668C1020.32 880.841 1023.44 878.98 1026.56 877.095C1032.93 873.238 1039.41 869.638 1046 866.156C1047.04 865.604 1048.08 865.052 1049.12 864.5C1051.16 863.415 1053.2 862.332 1055.25 861.251C1057.55 860.035 1059.84 858.814 1062.13 857.588C1066.07 855.488 1070.03 853.427 1074.01 851.386C1074.96 850.895 1075.92 850.404 1076.9 849.898C1092.2 842.056 1107.65 834.815 1123.5 828.152C1125.85 827.158 1128.2 826.143 1130.53 825.111C1209.67 790.249 1294.31 768.001 1430.34 746.262C1431.52 746.111 1431.52 746.111 1432.73 745.958C1466.85 741.654 1501.08 739.006 1535.43 737.274C1537.05 737.19 1537.05 737.19 1538.71 737.104C1549.95 736.53 1561.17 736.098 1572.43 736.183C1574.22 736.186 1576.01 736.189 1577.8 736.192C1581.07 736.199 1584.33 736.272 1587.61 736.386C1594.06 736.492 1599.16 736.531 1604.11 731.997C1606.16 729.848 1607.96 727.59 1609.77 725.237C1610.83 724.033 1611.9 722.835 1612.97 721.646C1613.42 721.12 1613.87 720.593 1614.34 720.051C1616.7 717.307 1619.19 714.678 1621.67 712.044C1622.52 711.143 1622.52 711.143 1623.38 710.224C1629.03 704.259 1634.85 698.463 1640.71 692.697C1644.42 689.034 1647.98 685.324 1651.37 681.373C1653.53 678.912 1655.83 676.605 1658.15 674.304C1658.63 673.828 1659.11 673.351 1659.61 672.86C1662.49 670.01 1665.45 667.308 1668.55 664.689C1671.79 661.773 1674.81 658.637 1677.88 655.543C1680.98 652.425 1684.14 649.449 1687.5 646.607C1689.04 645.266 1690.47 643.854 1691.9 642.399C1694.42 639.849 1697.05 637.489 1699.76 635.152C1701.8 633.387 1703.8 631.589 1705.8 629.784C1709.42 626.525 1713.07 623.299 1716.75 620.113C1717.37 619.575 1717.37 619.575 1718 619.026C1723.86 613.939 1729.78 608.996 1735.92 604.254C1739.42 601.533 1742.79 598.689 1746.13 595.776C1751.22 591.364 1756.51 587.31 1761.93 583.319C1764.54 581.392 1767.12 579.425 1769.69 577.432C1779.89 569.522 1790.39 562.246 1801.21 555.193C1803.26 553.843 1805.31 552.474 1807.34 551.089C1863.07 513.201 1925.95 484.757 1993.06 475.462C1993.83 475.352 1994.6 475.241 1995.4 475.127C2017.54 472.104 2041.71 472.387 2063.82 475.462Z" fill="#FEBE1C"/>
<path d="M2063.82 475.462C2064.68 475.535 2065.54 475.607 2066.42 475.682C2090.64 478.412 2116.06 505.111 2130.79 522.715C2132.07 524.335 2133.33 525.966 2134.58 527.603C2135 528.137 2135.41 528.67 2135.84 529.219C2182.88 589.675 2204 668.856 2254.09 1035.35C2254.18 1037.01 2254.18 1037.01 2254.26 1038.7C2254.52 1043.86 2254.76 1049.02 2254.98 1054.18C2255.06 1055.99 2255.15 1057.8 2255.23 1059.61C2255.26 1060.42 2255.29 1061.23 2255.32 1062.06C2255.65 1068.8 2257.61 1073.27 2261.31 1078.95C2261.87 1079.81 2262.43 1080.67 2263 1081.56C2263.59 1082.46 2264.18 1083.36 2264.78 1084.29C2265.4 1085.24 2266.02 1086.19 2266.63 1087.14C2267.84 1089.02 2269.05 1090.89 2270.27 1092.76C2286.54 1117.92 2301.75 1143.85 2315.43 1170.51C2316.44 1172.45 2317.46 1174.38 2318.5 1176.3C2350.36 1235.39 2374.73 1299.15 2391.2 1364.18C2391.43 1365.11 2391.43 1365.11 2391.67 1366.05C2393.55 1373.41 2395.14 1380.76 2396.44 1388.25C2396.7 1389.7 2396.97 1391.16 2397.23 1392.61C2397.73 1395.38 2398.17 1398.14 2398.57 1400.92C2399.61 1407.11 2400.69 1411.39 2405.86 1415.29C2407.39 1416.32 2408.93 1417.27 2410.51 1418.19C2420.35 1423.98 2427.3 1433.48 2434.11 1442.4C2434.45 1442.84 2434.79 1443.28 2435.14 1443.74C2436.16 1445.13 2436.16 1445.13 2437.11 1446.66C2439.8 1450.88 2442.58 1452.47 2447.16 1454.32C2474.4 1466.27 2492.83 1490.39 2503.51 1517.55C2504.74 1520.86 2505.85 1524.19 2506.92 1527.54C2507.14 1528.23 2507.36 1528.91 2507.59 1529.62C2510.58 1539.15 2512.63 1548.81 2514.29 1558.66C2514.46 1559.62 2514.63 1560.58 2514.8 1561.57C2518.03 1581.97 2518.09 1602.72 2518.21 1623.32C2518.53 1673.16 2523.03 1721.91 2531.77 1770.98C2541.18 1823.82 2548.73 1876.95 2553.83 1930.38C2553.91 1931.22 2553.99 1932.05 2554.08 1932.92C2556.08 1953.61 2557.11 1974.38 2558.31 1995.14C2559.16 1995.13 2559.16 1995.13 2560.04 1995.13C2573.95 1995.05 2587.87 1995 2601.78 1994.96C2608.51 1994.94 2615.24 1994.92 2621.97 1994.88C2627.83 1994.85 2633.7 1994.83 2639.57 1994.82C2642.67 1994.82 2645.78 1994.8 2648.88 1994.78C2652.35 1994.75 2655.82 1994.75 2659.29 1994.75C2660.32 1994.74 2661.34 1994.73 2662.4 1994.72C2669.47 1994.75 2673.83 1995.84 2679.4 2000.39C2683.78 2005.73 2685.26 2010.11 2684.98 2017.09C2684.23 2022.85 2681.55 2026.45 2677.23 2030.18C2670.76 2034.12 2664.8 2034.18 2657.4 2034.14C2656.25 2034.14 2655.1 2034.15 2653.96 2034.15C2650.79 2034.16 2647.63 2034.15 2644.46 2034.15C2641.01 2034.14 2637.56 2034.15 2634.11 2034.15C2628.03 2034.16 2621.96 2034.16 2615.88 2034.16C2606.79 2034.15 2597.69 2034.15 2588.6 2034.16C2573.1 2034.18 2557.6 2034.18 2542.1 2034.17C2526.38 2034.17 2510.67 2034.17 2494.96 2034.18C2493.47 2034.18 2493.47 2034.18 2491.95 2034.18C2486.9 2034.18 2481.84 2034.19 2476.79 2034.19C2466.42 2034.19 2456.05 2034.2 2445.69 2034.2C2444.64 2034.2 2443.6 2034.2 2442.52 2034.2C2419.57 2034.21 2396.62 2034.22 2373.67 2034.22C2335.14 2034.22 2296.61 2034.23 2258.08 2034.26C2257.24 2034.26 2257.24 2034.26 2256.38 2034.26C2242.65 2034.26 2228.92 2034.27 2215.19 2034.28C2193.66 2034.29 2172.13 2034.31 2150.6 2034.32C2148.25 2034.32 2145.9 2034.32 2143.55 2034.32C2088.09 2034.36 2032.63 2034.38 1977.18 2034.41C1974.11 2034.41 1971.05 2034.41 1967.98 2034.41C1911.29 2034.43 1854.61 2034.45 1797.93 2034.47C1796.08 2034.47 1794.23 2034.47 1792.38 2034.47C1779.47 2034.47 1766.56 2034.47 1753.65 2034.48C1751.8 2034.48 1749.96 2034.48 1748.12 2034.48C1746.9 2034.48 1745.67 2034.48 1744.44 2034.48C1743.83 2034.48 1743.23 2034.48 1742.6 2034.48C1739.54 2034.48 1736.47 2034.48 1733.4 2034.48C1676.78 2034.49 1620.16 2034.51 1563.54 2034.54C1562.37 2034.54 1561.19 2034.54 1560.02 2034.55C1536.19 2034.56 1512.36 2034.58 1488.52 2034.59C1477.09 2034.6 1465.66 2034.61 1454.22 2034.62C1453.09 2034.62 1451.95 2034.62 1450.81 2034.62C1413.98 2034.65 1377.15 2034.65 1340.32 2034.65C1303.8 2034.64 1267.28 2034.65 1230.76 2034.69C1225.72 2034.7 1220.67 2034.7 1215.63 2034.7C1214.64 2034.71 1213.65 2034.71 1212.63 2034.71C1196.96 2034.72 1181.29 2034.72 1165.63 2034.7C1150.22 2034.69 1134.82 2034.7 1119.42 2034.73C1110.39 2034.74 1101.36 2034.75 1092.32 2034.72C1086.33 2034.71 1080.33 2034.72 1074.33 2034.74C1070.93 2034.76 1067.53 2034.76 1064.13 2034.74C1045.51 2034.54 1045.51 2034.54 1028.52 2041.39C1005.11 2051 979.768 2049.24 955.802 2043.17C948.608 2041.19 948.608 2041.19 941.723 2043.45C940.981 2043.92 940.981 2043.92 940.225 2044.39C918.25 2057.03 889.584 2060.03 865.094 2054.01C855.479 2051.25 845.613 2046.93 837.295 2041.39C833.852 2041.73 830.734 2043.05 827.502 2044.23C803.315 2052.51 774.853 2050.98 751.762 2039.97C746.029 2036.9 746.029 2036.9 744.631 2035.5C743.291 2035.42 741.947 2035.4 740.604 2035.41C739.728 2035.41 738.851 2035.41 737.947 2035.41C736.972 2035.41 735.997 2035.42 734.992 2035.42C733.452 2035.42 733.452 2035.42 731.881 2035.42C729.018 2035.43 726.155 2035.43 723.291 2035.44C720.208 2035.45 717.125 2035.46 714.042 2035.46C708.694 2035.47 703.345 2035.48 697.997 2035.49C689.541 2035.51 681.085 2035.52 672.629 2035.53C669.737 2035.54 666.845 2035.54 663.954 2035.54C663.231 2035.54 662.508 2035.54 661.763 2035.54C653.528 2035.55 645.293 2035.57 637.058 2035.58C636.304 2035.58 635.551 2035.58 634.775 2035.58C622.584 2035.6 610.394 2035.63 598.203 2035.65C585.689 2035.68 573.175 2035.7 560.661 2035.71C552.942 2035.71 545.223 2035.73 537.504 2035.75C532.209 2035.77 526.915 2035.77 521.62 2035.77C518.566 2035.77 515.513 2035.78 512.46 2035.79C509.145 2035.81 505.83 2035.81 502.515 2035.8C501.556 2035.81 500.598 2035.82 499.611 2035.83C491.707 2035.79 484.681 2034.84 478.774 2029.24C474.505 2024.53 473.858 2019.74 473.94 2013.59C474.505 2008.64 476.518 2004.57 480.096 2001.09C484.929 1997.3 488.372 1996.71 494.513 1996.72C495.115 1996.72 495.716 1996.72 496.336 1996.71C498.351 1996.71 500.366 1996.72 502.381 1996.72C503.826 1996.72 505.27 1996.72 506.715 1996.72C510.638 1996.72 514.56 1996.73 518.483 1996.73C522.582 1996.74 526.681 1996.74 530.78 1996.74C538.543 1996.74 546.306 1996.75 554.069 1996.76C562.906 1996.77 571.744 1996.77 580.581 1996.78C598.761 1996.78 616.94 1996.8 635.12 1996.82C635.154 1995.84 635.154 1995.84 635.19 1994.84C635.295 1991.85 635.403 1988.86 635.511 1985.87C635.547 1984.84 635.583 1983.81 635.62 1982.75C635.867 1975.96 636.228 1969.24 637.015 1962.49C637.124 1961.54 637.232 1960.58 637.344 1959.6C642.419 1916.7 652.273 1866.86 678.069 1830.93C678.469 1830.37 678.869 1829.81 679.281 1829.23C680.032 1828.2 680.805 1827.18 681.603 1826.18C683.629 1823.44 683.994 1822.05 683.653 1818.64C683.233 1817.19 682.774 1815.75 682.294 1814.32C681.967 1813.31 681.639 1812.29 681.302 1811.25C680.305 1808.19 679.272 1805.15 678.232 1802.11C658.95 1745.62 647.049 1687.08 641.859 1627.62C641.768 1626.59 641.769 1626.59 641.676 1625.54C639.211 1597.12 638.695 1568.67 638.49 1540.16C638.484 1539.4 638.478 1538.64 638.473 1537.86C638.423 1529.91 638.536 1521.98 638.911 1514.04C639.035 1511.38 639.149 1508.73 639.214 1506.08C639.332 1503.16 639.332 1503.16 639.708 1499.84C640.738 1488.63 635.872 1482.05 629.381 1473.3C628.442 1471.99 627.506 1470.68 626.573 1469.36C625.181 1467.4 623.787 1465.45 622.38 1463.5C618.037 1457.48 614 1451.3 610.02 1445.04C608.537 1442.71 607.036 1440.39 605.537 1438.07C598.44 1427.03 591.439 1415.94 584.576 1404.76C584.033 1403.88 583.489 1402.99 582.929 1402.08C574.214 1387.92 565.76 1373.63 557.608 1359.14C556.781 1357.67 555.952 1356.2 555.123 1354.73C521.971 1295.91 460.876 1181.53 467.484 1051.54C467.653 1050.41 467.653 1050.41 467.825 1049.26C470.267 1033.75 474.218 1016.8 484.331 1004.45C484.949 1003.65 485.567 1002.85 486.204 1002.03C493.297 993.081 501.3 985.98 510.446 979.217C510.918 978.868 511.389 978.519 511.875 978.159C533.898 962.141 560.262 952.226 586.261 944.736C587.16 944.475 588.06 944.215 588.986 943.946C663.095 922.726 741.784 917.735 818.456 915.163C819.031 915.144 819.607 915.124 820.199 915.104C838.412 914.496 856.563 914.456 874.78 914.864C878.603 914.948 882.427 915.017 886.25 915.083C887.528 915.105 888.807 915.127 890.085 915.149C892.003 915.183 893.921 915.216 895.839 915.248C902.957 915.37 910.072 915.526 917.187 915.764C957.917 917.656 957.917 917.656 992.396 898.136C995.664 895.203 999.162 893.044 1002.99 890.922C1004.07 890.29 1005.15 889.657 1006.23 889.022C1007.24 888.443 1008.24 887.864 1009.25 887.286C1010.31 886.665 1011.38 886.044 1012.44 885.421C1014.02 884.501 1015.59 883.582 1017.17 882.668C1020.32 880.841 1023.45 878.98 1026.56 877.095C1032.94 873.238 1039.41 869.638 1046 866.156C1047.04 865.604 1048.08 865.052 1049.12 864.5C1051.16 863.415 1053.21 862.332 1055.25 861.251C1057.55 860.035 1059.84 858.814 1062.13 857.588C1066.08 855.488 1070.04 853.427 1074.01 851.386C1074.96 850.895 1075.92 850.404 1076.9 849.898C1092.2 842.056 1107.65 834.815 1123.5 828.152C1125.86 827.158 1128.2 826.143 1130.53 825.111C1209.67 790.249 1294.31 768.001 1430.34 746.262C1431.52 746.111 1431.52 746.111 1432.73 745.958C1466.86 741.654 1501.08 739.006 1535.43 737.274C1537.05 737.19 1537.05 737.19 1538.71 737.104C1549.96 736.53 1561.17 736.098 1572.43 736.183C1574.22 736.186 1576.01 736.189 1577.8 736.192C1581.07 736.199 1584.34 736.272 1587.61 736.386C1594.06 736.492 1599.16 736.531 1604.11 731.997C1606.16 729.848 1607.96 727.59 1609.77 725.237C1610.83 724.033 1611.9 722.835 1612.98 721.646C1613.43 721.12 1613.88 720.593 1614.34 720.051C1616.7 717.307 1619.19 714.678 1621.67 712.044C1622.52 711.143 1622.52 711.143 1623.38 710.224C1629.03 704.259 1634.85 698.463 1640.71 692.697C1644.42 689.034 1647.98 685.324 1651.37 681.373C1653.53 678.912 1655.83 676.605 1658.15 674.304C1658.63 673.828 1659.11 673.351 1659.61 672.86C1662.49 670.01 1665.45 667.308 1668.55 664.689C1671.79 661.773 1674.81 658.637 1677.88 655.543C1680.98 652.425 1684.14 649.449 1687.5 646.607C1689.04 645.266 1690.47 643.854 1691.9 642.399C1694.42 639.849 1697.05 637.489 1699.76 635.152C1701.8 633.387 1703.8 631.589 1705.8 629.784C1709.42 626.525 1713.07 623.299 1716.75 620.113C1717.37 619.575 1717.37 619.575 1718 619.026C1723.86 613.939 1729.78 608.997 1735.92 604.254C1739.42 601.533 1742.79 598.689 1746.13 595.776C1751.22 591.364 1756.51 587.31 1761.93 583.319C1764.55 581.392 1767.13 579.425 1769.69 577.432C1779.89 569.522 1790.4 562.246 1801.21 555.193C1803.26 553.843 1805.31 552.474 1807.34 551.089C1863.07 513.201 1925.95 484.757 1993.06 475.462C1993.83 475.352 1994.6 475.241 1995.4 475.127C2017.54 472.104 2041.71 472.387 2063.82 475.462ZM1991 510.406C1988.81 510.79 1986.61 511.129 1984.41 511.464C1954.37 516.241 1925.34 526.556 1897.87 539.377C1896.89 539.832 1895.91 540.286 1894.9 540.754C1880.93 547.252 1867.31 554.21 1854.06 562.084C1853.2 562.598 1852.33 563.111 1851.44 563.641C1837.65 571.883 1824.3 580.669 1811.1 589.837C1810.2 590.458 1810.2 590.458 1809.29 591.091C1802.65 595.688 1796.25 600.569 1789.89 605.548C1785.69 608.838 1781.44 612.052 1777.14 615.224C1772.53 618.641 1768.1 622.196 1763.75 625.94C1760.52 628.716 1757.2 631.341 1753.82 633.937C1748.76 637.842 1744.06 642.05 1739.41 646.423C1736.95 648.729 1734.43 650.953 1731.88 653.158C1729.91 654.876 1727.96 656.626 1726.02 658.378C1723.56 660.591 1721.1 662.787 1718.6 664.948C1710.95 671.617 1703.59 678.557 1696.49 685.805C1694.71 687.589 1692.86 689.244 1690.94 690.882C1687.14 694.191 1683.56 697.7 1680 701.265C1679.33 701.932 1678.66 702.598 1677.98 703.285C1676.57 704.685 1675.17 706.087 1673.77 707.489C1671.64 709.62 1669.51 711.746 1667.37 713.872C1666 715.241 1664.63 716.61 1663.26 717.98C1662.63 718.607 1662 719.235 1661.35 719.881C1657.91 723.329 1654.61 726.851 1651.44 730.545C1649.31 732.988 1646.98 735.205 1644.65 737.457C1642.44 739.72 1640.38 742.083 1638.31 744.469C1635.19 748.006 1631.91 751.4 1628.66 754.819C1626.29 757.335 1623.95 759.848 1621.76 762.533C1619.08 765.707 1616.23 767.658 1612.3 768.968C1610.79 769.081 1609.28 769.149 1607.77 769.192C1606.36 769.234 1606.36 769.234 1604.93 769.277C1603.91 769.304 1602.88 769.331 1601.83 769.359C1600.18 769.408 1598.54 769.456 1596.9 769.504C1595.14 769.556 1593.38 769.605 1591.62 769.654C1587.94 769.757 1584.27 769.867 1580.59 769.979C1579.97 769.998 1579.36 770.016 1578.73 770.036C1577.48 770.074 1576.23 770.112 1574.98 770.15C1571.84 770.245 1568.7 770.34 1565.56 770.434C1564.34 770.471 1563.12 770.508 1561.89 770.545C1559.65 770.612 1557.41 770.679 1555.17 770.746C1518.39 771.849 1481.81 774.172 1445.28 778.676C1442.24 779.047 1439.2 779.399 1436.15 779.744C1428.3 780.639 1420.49 781.58 1412.72 783.044C1406.79 784.146 1400.83 785.004 1394.86 785.883C1385.77 787.225 1376.7 788.588 1367.72 790.545C1364.06 791.334 1360.41 791.918 1356.69 792.411C1349.43 793.419 1342.31 794.982 1335.15 796.564C1333.76 796.867 1332.38 797.17 1330.99 797.473C1327.64 798.207 1324.28 798.947 1320.93 799.69C1319.32 800.046 1317.71 800.401 1316.1 800.755C1307.72 802.605 1299.38 804.537 1291.1 806.803C1288.92 807.396 1286.75 807.974 1284.56 808.531C1275.91 810.746 1267.33 813.161 1258.75 815.644C1258.22 815.799 1257.68 815.955 1257.12 816.116C1230.79 823.731 1204.87 832.496 1179.29 842.334C1177.64 842.969 1175.98 843.6 1174.32 844.229C1146.36 854.844 1119.1 866.957 1092.33 880.295C1091.51 880.704 1090.68 881.112 1089.84 881.533C1078.35 887.257 1067.12 893.365 1055.99 899.748C1053.03 901.441 1050.05 903.114 1047.08 904.788C1028.31 915.36 1010.19 926.757 992.364 938.83C991.738 939.252 991.112 939.675 990.466 940.11C989.299 940.897 988.134 941.688 986.971 942.484C985.394 943.547 983.795 944.562 982.186 945.577C981.268 946.166 980.349 946.755 979.402 947.361C974.203 949.897 968.562 949.375 962.908 949.309C961.641 949.307 960.374 949.306 959.106 949.307C955.67 949.304 952.235 949.281 948.799 949.254C945.166 949.23 941.534 949.226 937.901 949.219C930.989 949.205 924.077 949.173 917.165 949.136C904.896 949.069 892.627 949.033 880.358 948.999C876.078 948.986 871.799 948.967 867.519 948.943C839.943 948.791 812.397 949.411 784.856 950.833C783.828 950.886 782.801 950.938 781.743 950.992C650.423 956.746 557.608 971.785 515.776 1019.85C505.301 1031.89 502.214 1047.83 500.337 1063.32C500.216 1064.29 500.216 1064.29 500.093 1065.29C499.367 1072.02 499.366 1078.74 499.385 1085.51C499.389 1087.48 499.385 1089.45 499.379 1091.42C499.372 1103.61 500.114 1115.51 502.18 1127.55C502.364 1128.63 502.549 1129.72 502.739 1130.84C504.401 1140.43 506.533 1149.89 508.98 1159.31C509.564 1161.56 510.129 1163.81 510.692 1166.06C526.795 1228.95 556.54 1289.53 589.175 1345.34C590.634 1347.85 592.074 1350.36 593.514 1352.88C599.74 1363.75 606.15 1374.48 612.809 1385.09C614.369 1387.59 615.9 1390.11 617.429 1392.63C629.234 1412.08 641.894 1430.97 654.554 1449.87C655.028 1450.58 655.501 1451.29 655.989 1452.01C658.546 1455.83 661.112 1459.65 663.688 1463.46C664.763 1465.05 665.839 1466.65 666.914 1468.24C667.417 1468.98 667.92 1469.72 668.439 1470.48C669.138 1471.52 669.138 1471.52 669.852 1472.58C670.263 1473.19 670.674 1473.8 671.097 1474.42C673.582 1478.58 674.117 1482.08 674.028 1486.86C674.02 1487.48 674.013 1488.1 674.005 1488.74C673.93 1493.58 673.768 1498.4 673.565 1503.23C673.032 1516.07 672.86 1528.89 672.87 1541.74C672.87 1542.78 672.87 1543.83 672.87 1544.9C672.883 1564.3 673.468 1583.63 674.601 1602.99C674.706 1604.79 674.805 1606.6 674.903 1608.41C677.162 1649.35 682.426 1691.58 693.21 1731.19C694.083 1734.41 694.921 1737.64 695.749 1740.88C700.23 1758.27 705.388 1775.38 710.935 1792.46C713.788 1791.82 715.32 1790.98 717.569 1789.09C733.825 1776.19 752.994 1767.46 772.43 1760.5C773.451 1760.13 773.451 1760.13 774.493 1759.76C804.193 1749.2 835.296 1744.31 866.778 1744.36C867.476 1744.36 868.175 1744.36 868.894 1744.37C901.721 1744.46 935.877 1747.5 967.076 1758.4C968.11 1758.76 969.145 1759.12 970.211 1759.49C1004.79 1771.75 1036.4 1793.7 1058 1823.57C1058.38 1824.1 1058.76 1824.62 1059.16 1825.16C1068.16 1837.67 1075.83 1850.87 1082.43 1864.78C1082.81 1865.57 1082.81 1865.57 1083.2 1866.37C1097.62 1896.4 1103.92 1935.11 1092.72 1967.25C1092.22 1968.56 1092.22 1968.56 1091.7 1969.91C1091.39 1970.72 1091.39 1970.72 1091.08 1971.55C1088.14 1979.32 1084.7 1986.54 1080.41 1993.66C1078.98 1995.94 1078.98 1995.94 1078.22 1998.5C1135.28 1998.51 1192.35 1998.49 1249.41 1998.43C1260.06 1998.42 1270.72 1998.41 1281.37 1998.4C1301.01 1998.38 1320.65 1998.36 1340.29 1998.34C1359.67 1998.33 1379.04 1998.31 1398.41 1998.29C1399.01 1998.29 1399.62 1998.29 1400.25 1998.29C1405.8 1998.28 1411.36 1998.28 1416.91 1998.27C1430.71 1998.26 1444.5 1998.24 1458.29 1998.23C1458.92 1998.23 1459.54 1998.23 1460.19 1998.23C1490.49 1998.2 1520.78 1998.17 1551.07 1998.14C1561.55 1998.13 1572.02 1998.12 1582.5 1998.11C1583.47 1998.11 1583.47 1998.11 1584.47 1998.11C1614.85 1998.08 1645.22 1998.05 1675.6 1998.02C1677.58 1998.02 1679.56 1998.02 1681.54 1998.01C1694.66 1998 1707.77 1997.99 1720.89 1997.98C1746.98 1997.95 1773.07 1997.93 1799.16 1997.9C1800.4 1997.9 1801.64 1997.9 1802.88 1997.9C1874.13 1997.83 1945.37 1997.76 2049.5 1997.66C2050.04 1995.36 2050.59 1993.07 2051.13 1990.77C2051.28 1990.12 2051.44 1989.47 2051.6 1988.81C2052.61 1984.51 2053.56 1980.22 2054.34 1975.88C2054.45 1975.25 2054.57 1974.62 2054.69 1973.98C2055.05 1971.96 2055.41 1969.93 2055.77 1967.91C2055.89 1967.19 2056.02 1966.48 2056.14 1965.74C2066.87 1903.79 2068.68 1839.27 2063.96 1776.61C2063.82 1774.73 2063.68 1772.86 2063.55 1770.98C2061.46 1742.12 2057.89 1713.44 2053.71 1684.81C2053.5 1683.34 2053.5 1683.34 2053.28 1681.83C2052 1673.12 2050.62 1664.43 2049.07 1655.77C2046.55 1641.65 2044.2 1627.68 2043.6 1613.33C2043.57 1612.51 2043.53 1611.69 2043.49 1610.84C2042.41 1583.28 2048.16 1556.6 2066.79 1535.6C2068.87 1533.43 2068.87 1533.43 2070.81 1532.26C2072.54 1530.92 2072.54 1530.92 2072.64 1528.15C2072.66 1527.01 2072.67 1525.86 2072.67 1524.71C2073.09 1511.03 2076.04 1498.02 2081.51 1485.49C2081.89 1484.62 2082.27 1483.74 2082.66 1482.84C2094.93 1456.58 2119.47 1439.09 2146.08 1429.19C2148.12 1428.45 2150.16 1427.72 2152.2 1427C2152.8 1426.79 2153.4 1426.58 2154.02 1426.36C2155.38 1425.88 2156.73 1425.4 2158.09 1424.92C2160.3 1423.9 2161.39 1422.37 2162.86 1420.48C2164.69 1418.31 2166.83 1416.55 2169 1414.71C2170.17 1413.71 2171.32 1412.68 2172.45 1411.62C2196.4 1389.27 2225.85 1380.18 2258.08 1380.94C2264.92 1381.18 2271.19 1381.93 2277.79 1383.73C2278.72 1383.96 2279.65 1384.18 2280.61 1384.41C2291.11 1387.13 2301.7 1391.15 2311.22 1396.35C2316.11 1398.9 2320.35 1398.31 2325.67 1397.6C2331.3 1396.97 2336.94 1397.07 2342.6 1397.08C2343.7 1397.08 2344.8 1397.08 2345.94 1397.08C2351.91 1397.08 2357.78 1397.27 2363.71 1398.03C2358.47 1373.43 2352.07 1349.18 2344.17 1325.28C2343.39 1322.86 2342.65 1320.41 2341.91 1317.97C2340.06 1311.96 2338.02 1306.03 2335.91 1300.11C2335.71 1299.55 2335.52 1298.99 2335.31 1298.41C2328.85 1280.33 2321.59 1262.62 2313.8 1245.08C2313.52 1244.45 2313.25 1243.83 2312.96 1243.18C2309.54 1235.47 2305.92 1227.87 2302.11 1220.34C2299.89 1215.95 2297.79 1211.51 2295.69 1207.07C2288.03 1191.06 2279.69 1175.46 2270.84 1160.07C2269.27 1157.35 2267.72 1154.63 2266.16 1151.9C2260.7 1142.38 2255.17 1132.94 2249.26 1123.69C2248.31 1122.19 2247.36 1120.67 2246.42 1119.15C2243.12 1113.81 2239.76 1108.52 2236.28 1103.29C2235.97 1102.81 2235.65 1102.32 2235.32 1101.83C2233.73 1099.42 2232.13 1097.02 2230.52 1094.62C2228.82 1092.06 2227.17 1089.48 2225.56 1086.86C2224.99 1085.95 2224.99 1085.95 2224.41 1085.01C2221.48 1079.5 2221.59 1073.49 2221.41 1067.38C2221.3 1063.66 2221.13 1059.95 2220.97 1056.23C2220.94 1055.41 2220.91 1054.59 2220.87 1053.75C2220.39 1042.38 2219.65 1031.04 2218.93 1019.69C2218.87 1018.83 2218.87 1018.83 2218.82 1017.96C2213.79 939.669 2163.3 629.784 2117.73 562.925C2117.41 562.445 2117.08 561.964 2116.74 561.469C2111.62 553.991 2106.04 547.015 2100.04 540.218C2099.66 539.778 2099.28 539.338 2098.88 538.884C2093.57 532.801 2087.98 527.428 2081.51 522.558C2081.04 522.204 2080.57 521.85 2080.09 521.486C2076.7 518.942 2073.24 516.503 2069.72 514.148C2068.68 513.452 2068.68 513.452 2067.63 512.742C2063.46 510.307 2059.33 509.514 2054.57 509.013C2053.91 508.942 2053.26 508.872 2052.58 508.799C2044.37 507.995 2036.16 507.966 2027.91 507.998C2027.1 507.999 2026.29 508 2025.45 508.002C2013.83 508.034 2002.47 508.396 1991 510.406Z" fill="#222221"/>
<path d="M2305.61 1430.59C2308.6 1431.88 2310.81 1431.98 2314.07 1431.93C2314.62 1431.92 2315.18 1431.92 2315.75 1431.91C2319.18 1431.83 2322.44 1431.45 2325.81 1430.83C2346.36 1427.28 2367.97 1430.41 2385.62 1441.76C2398.11 1450.66 2406.85 1462 2414.45 1475.14C2417.68 1479.35 2422.15 1481.03 2427 1482.81C2447.05 1490.56 2461.13 1505.73 2469.84 1525.18C2481.54 1552.95 2483.79 1582.79 2483.8 1612.54C2483.81 1619.34 2483.88 1626.14 2483.95 1632.94C2483.96 1633.62 2483.96 1634.29 2483.97 1634.99C2484.17 1654.16 2485.27 1673.26 2486.7 1692.38C2486.78 1693.44 2486.78 1693.44 2486.86 1694.53C2488 1710.12 2489.66 1725.58 2492.17 1741.02C2492.6 1743.65 2493.01 1746.29 2493.42 1748.93C2494.81 1757.85 2496.31 1766.75 2497.92 1775.64C2502.74 1802.4 2507.17 1829.17 2510.87 1856.11C2511.12 1857.93 2511.37 1859.74 2511.62 1861.55C2513.81 1877.12 2515.61 1892.72 2517.24 1908.36C2517.65 1912.33 2518.08 1916.3 2518.53 1920.27C2520.35 1936.58 2521.72 1952.89 2522.72 1969.27C2522.77 1970.16 2522.83 1971.06 2522.88 1971.97C2523.04 1974.53 2523.19 1977.09 2523.33 1979.64C2523.38 1980.39 2523.42 1981.14 2523.47 1981.91C2523.68 1985.71 2523.79 1989.49 2523.78 1993.3C2523.78 1994.12 2523.78 1994.94 2523.77 1995.79C2523.77 1996.4 2523.77 1997.02 2523.77 1997.66C2471.64 1997.68 2419.5 1997.62 2367.37 1997.49C2357.51 1997.47 2347.65 1997.45 2337.8 1997.42C2320.24 1997.38 2302.68 1997.34 2285.11 1997.3C2268.12 1997.26 2251.13 1997.22 2234.14 1997.18C2233.08 1997.17 2232.02 1997.17 2230.93 1997.17C2225.61 1997.16 2220.3 1997.14 2214.98 1997.13C2171.33 1997.03 2127.69 1996.92 2084.04 1996.82C2084.16 1995.63 2084.29 1994.44 2084.42 1993.25C2084.49 1992.59 2084.56 1991.92 2084.63 1991.24C2085.02 1988.14 2085.69 1985.1 2086.36 1982.05C2091.28 1958.27 2094.19 1934.13 2096.19 1909.95C2096.3 1908.65 2096.41 1907.36 2096.52 1906.07C2098.38 1884.09 2098.5 1862.01 2098.47 1839.97C2098.46 1836.85 2098.47 1833.72 2098.47 1830.6C2098.5 1809.18 2097.71 1787.9 2096.1 1766.54C2096.03 1765.6 2095.96 1764.66 2095.88 1763.69C2094.02 1739.06 2091.09 1714.56 2087.78 1690.09C2087.68 1689.37 2087.59 1688.64 2087.49 1687.9C2086.85 1683.22 2086.1 1678.56 2085.31 1673.9C2084.16 1667.06 2083.07 1660.21 2081.97 1653.36C2081.66 1651.49 2081.36 1649.61 2081.06 1647.73C2076.13 1617.34 2076.13 1617.34 2076.19 1606.33C2076.2 1605.52 2076.2 1604.71 2076.2 1603.87C2076.38 1592.78 2077.64 1581.43 2082.35 1571.27C2082.71 1570.5 2083.06 1569.73 2083.43 1568.93C2086.87 1562.03 2091.57 1556.51 2098.15 1552.4C2101.93 1549.81 2103.58 1546.07 2105.1 1541.84C2105.64 1538.38 2105.68 1534.98 2105.68 1531.48C2105.72 1529.62 2105.76 1527.75 2105.8 1525.89C2105.83 1524.56 2105.83 1524.56 2105.86 1523.22C2106.46 1505.24 2114.46 1489.75 2127.26 1477.35C2139.62 1466.7 2154.32 1460.6 2169.8 1455.95C2176.37 1453.91 2180.21 1451.4 2184.65 1446.07C2199.01 1429.4 2219.92 1415.48 2242.27 1413.27C2265.12 1411.96 2286 1419.45 2305.61 1430.59Z" fill="#FEBE1C"/>
<path d="M1453.4 1398.66C1454.07 1398.66 1454.74 1398.66 1455.44 1398.66C1477.16 1398.69 1498.36 1401.12 1519.63 1405.6C1520.3 1405.74 1520.97 1405.87 1521.66 1406.01C1557.84 1413.37 1594.55 1429.35 1623.25 1452.7C1623.95 1453.23 1624.65 1453.76 1625.38 1454.31C1649.64 1473.04 1669.61 1499.28 1677.16 1529.23C1677.39 1529.98 1677.62 1530.73 1677.86 1531.51C1681.48 1543.35 1681.67 1555.83 1681.64 1568.11C1681.63 1570.38 1681.65 1572.64 1681.68 1574.91C1681.73 1588.11 1680.01 1600.57 1676.16 1613.22C1675.9 1614.07 1675.65 1614.92 1675.39 1615.79C1667.18 1642.52 1653.52 1666.47 1634.43 1686.94C1632.84 1688.66 1631.33 1690.42 1629.83 1692.22C1621 1702.29 1610.46 1710.61 1599.66 1718.45C1599.17 1718.81 1598.67 1719.17 1598.17 1719.54C1571.58 1738.74 1541.62 1751.15 1510.37 1760.5C1509.61 1760.73 1508.85 1760.96 1508.07 1761.19C1498.2 1764.1 1488.07 1765.72 1477.93 1767.38C1477.29 1767.49 1476.64 1767.6 1475.98 1767.71C1459 1770.49 1442.39 1771.71 1425.18 1771.65C1422.12 1771.64 1419.06 1771.65 1416 1771.66C1405.74 1771.67 1395.83 1771.34 1385.69 1769.75C1384.18 1769.57 1382.66 1769.4 1381.15 1769.24C1330.96 1763.42 1279.44 1740.25 1247.07 1700.56C1241.63 1693.67 1236.72 1686.55 1232.38 1678.92C1231.82 1677.98 1231.27 1677.04 1230.71 1676.06C1227.33 1670.14 1224.58 1664.04 1222.11 1657.69C1221.72 1656.7 1221.72 1656.7 1221.32 1655.69C1216.67 1643.3 1213.91 1630.26 1211.89 1617.21C1211.79 1616.52 1211.68 1615.83 1211.57 1615.11C1205.4 1574.39 1211.43 1533.11 1235.75 1498.95C1236.29 1498.17 1236.29 1498.17 1236.86 1497.37C1274.6 1443.92 1339.89 1415.08 1402.54 1403.08C1419.44 1400.2 1436.26 1398.68 1453.4 1398.66Z" fill="#FEDA7E"/>
<path d="M1035.76 1304.46C1038.31 1304.47 1040.86 1304.46 1043.4 1304.45C1045.05 1304.45 1046.7 1304.45 1048.35 1304.46C1049.09 1304.45 1049.84 1304.45 1050.61 1304.45C1055.3 1304.48 1059.7 1305.02 1064.3 1305.94C1066.4 1306.36 1068.51 1306.68 1070.64 1306.99C1112.15 1314.57 1148.63 1341.41 1172.57 1375.32C1181.83 1389.43 1188.68 1404.71 1193.52 1420.84C1193.75 1421.6 1193.98 1422.36 1194.22 1423.15C1197.88 1435.99 1199.11 1448.87 1199.01 1462.18C1199 1464.41 1199.01 1466.64 1199.03 1468.88C1199.04 1481.93 1197.77 1495.02 1194 1507.57C1193.79 1508.28 1193.58 1508.99 1193.37 1509.72C1185.75 1534.55 1172.9 1556.83 1155.19 1575.8C1154.42 1576.62 1154.42 1576.62 1153.64 1577.46C1137.52 1594.43 1117.81 1606.47 1096.17 1615.07C1094.51 1615.73 1092.87 1616.42 1091.23 1617.1C1054.68 1631.48 1010.55 1628.28 974.914 1613.23C964.336 1608.62 954.542 1603.16 945.121 1596.51C944.64 1596.17 944.159 1595.83 943.663 1595.48C912.128 1573.06 887.031 1536.27 880.25 1497.83C879.801 1495.07 879.404 1492.29 879.029 1489.52C878.678 1486.4 878.678 1486.4 877.729 1483.81C877.649 1482.61 877.613 1481.41 877.607 1480.21C877.599 1479.12 877.599 1479.12 877.591 1478.02C877.59 1477.23 877.589 1476.45 877.588 1475.64C877.585 1474.83 877.582 1474.02 877.58 1473.18C877.575 1471.46 877.573 1469.73 877.573 1468.01C877.572 1465.4 877.556 1462.79 877.54 1460.18C877.516 1451.94 877.515 1443.95 879.414 1435.88C879.542 1435.28 879.669 1434.69 879.801 1434.07C885.181 1409.83 894.629 1387.56 909.74 1367.76C910.292 1367.03 910.844 1366.3 911.412 1365.54C914.606 1361.44 918.027 1357.56 921.534 1353.72C922.133 1353.06 922.133 1353.06 922.745 1352.39C943.557 1329.96 971.209 1316.18 1000.4 1308.31C1001.03 1308.14 1001.65 1307.97 1002.29 1307.79C1013.45 1304.88 1024.29 1304.41 1035.76 1304.46Z" fill="#030A2F"/>
<path d="M1871.07 1205.02C1872.71 1206.55 1874.34 1208.1 1875.97 1209.65C1876.67 1210.29 1877.37 1210.94 1878.09 1211.6C1907.28 1239.33 1922.72 1280.43 1924.12 1320.04C1924.98 1354.93 1914.05 1391.2 1892.81 1419.06C1892.15 1419.97 1891.48 1420.88 1890.82 1421.8C1873.39 1445.29 1849.2 1463.03 1822.05 1473.72C1821.4 1473.98 1820.75 1474.24 1820.08 1474.51C1804.59 1480.57 1788.2 1484.49 1771.51 1484.65C1770.76 1484.67 1770.02 1484.68 1769.25 1484.69C1722.59 1485.34 1682.05 1469.81 1648.27 1437.59C1623.7 1413.6 1609.4 1382.28 1603.42 1348.87C1603.17 1347.52 1602.9 1346.17 1602.57 1344.83C1602.02 1341.52 1602.02 1338.24 1601.99 1334.88C1601.98 1334.14 1601.97 1333.39 1601.96 1332.63C1601.94 1330.22 1601.93 1327.8 1601.93 1325.39C1601.92 1324.57 1601.92 1323.75 1601.92 1322.91C1601.91 1310.58 1602.55 1299.02 1605.56 1287.02C1605.81 1285.9 1606.05 1284.78 1606.3 1283.66C1612.76 1256.42 1628.18 1231.71 1647.4 1211.66C1648.35 1210.66 1649.3 1209.65 1650.24 1208.63C1665.28 1192.88 1685.07 1181.82 1704.96 1173.49C1705.83 1173.12 1706.7 1172.76 1707.59 1172.38C1713.42 1170.11 1719.48 1168.81 1725.58 1167.46C1728.4 1166.91 1728.4 1166.91 1730.23 1165.92C1780.83 1156.9 1832.94 1170.22 1871.07 1205.02Z" fill="#030A2F"/>
<path d="M882.784 1777.32C883.861 1777.35 884.938 1777.38 886.048 1777.42C908.147 1778.24 931.609 1781.42 952.703 1788.25C953.415 1788.48 954.127 1788.71 954.861 1788.94C975.565 1795.67 994.695 1805.83 1010.54 1820.87C1012.25 1822.49 1014.01 1823.98 1015.83 1825.47C1035.63 1842.72 1052.33 1871.01 1059.69 1895.9C1059.91 1896.66 1060.14 1897.42 1060.38 1898.2C1067.88 1924.11 1066.73 1948.98 1054.37 1973.01C1046.01 1987.95 1034.26 2001.37 1018.46 2008.43C1017.68 2008.78 1017.68 2008.78 1016.88 2009.14C1008.17 2012.81 999.755 2014.04 990.347 2013.9C989.397 2013.9 988.448 2013.91 987.469 2013.91C982.585 2013.88 978.367 2013.62 973.762 2011.96C974.78 2008.7 975.994 2005.63 977.435 2002.54C985.626 1984.82 994.604 1957.77 989.182 1938.38C987.447 1934.4 984.861 1932 981.344 1929.54C976.109 1927.8 969.922 1927.74 964.917 1930.06C960.545 1934.21 957.827 1937.48 957.395 1943.66C957.305 1944.86 957.305 1944.86 957.213 1946.09C957.149 1946.94 957.086 1947.79 957.02 1948.67C955.299 1969.61 950.522 1993.62 933.727 2008.01C917.483 2020.92 897.875 2023.64 877.73 2022.05C872.655 2021.13 868.016 2019.3 863.409 2017C864.017 2013.78 865.462 2011.14 866.936 2008.22C869.484 2002.97 871.337 1997.65 872.938 1992.03C873.142 1991.33 873.346 1990.62 873.556 1989.89C874.152 1987.72 874.69 1985.55 875.202 1983.36C875.37 1982.67 875.537 1981.98 875.71 1981.27C877.413 1972.98 877.141 1964.51 877.107 1956.08C877.098 1953.4 877.107 1950.72 877.117 1948.04C877.116 1946.31 877.114 1944.58 877.111 1942.86C877.116 1941.67 877.116 1941.67 877.121 1940.46C877.062 1932.06 876.184 1925.36 870.569 1918.82C866.644 1915.55 862.678 1915.68 857.739 1915.77C853.747 1916.22 851.096 1917.47 848.246 1920.29C846.833 1922.21 845.905 1924 844.876 1926.17C844.598 1926.73 844.32 1927.28 844.034 1927.86C843.971 1929.2 843.961 1930.54 843.978 1931.89C843.986 1932.73 843.995 1933.57 844.003 1934.43C844.022 1935.8 844.022 1935.8 844.04 1937.2C844.055 1939.14 844.069 1941.08 844.083 1943.02C844.109 1946.07 844.139 1949.12 844.178 1952.17C844.214 1955.12 844.234 1958.07 844.251 1961.01C844.274 1962.36 844.274 1962.36 844.298 1963.72C844.346 1977.81 840.066 1992.93 830.555 2003.55C820.21 2013.68 806.02 2014.82 792.357 2014.79C777.941 2014.58 765.728 2010.82 755.086 2000.74C743.922 1988.44 737.696 1971.47 734.996 1955.35C733.856 1948.71 732.222 1944.3 726.836 1940.1C721.976 1937.47 716.918 1937.01 711.561 1938.46C706.238 1940.76 704.165 1944.74 701.669 1949.72C701.225 1956.34 702.596 1962.16 704.249 1968.54C704.642 1970.09 704.642 1970.09 705.042 1971.67C707.033 1979.3 709.47 1986.66 712.38 1993.99C713.463 1996.82 713.463 1996.82 713.463 1998.5C699.007 1998.5 684.552 1998.5 669.658 1998.5C669.658 1980.65 669.658 1980.65 670.29 1972.9C670.363 1971.99 670.436 1971.08 670.511 1970.14C671.882 1954.21 674.373 1938.36 678.082 1922.81C678.332 1921.75 678.332 1921.75 678.587 1920.66C685.6 1891.24 695.7 1862.91 714.305 1838.71C714.821 1838.02 715.337 1837.34 715.868 1836.63C728.836 1819.81 745.713 1808.04 764.849 1799.18C765.499 1798.88 766.149 1798.58 766.819 1798.26C803.667 1781.24 842.607 1776.1 882.784 1777.32Z" fill="#FEBE1C"/>
<path d="M2009.07 606.658C2009.8 606.892 2010.54 607.126 2011.29 607.368C2028.4 613.454 2039.58 628.791 2048.66 643.662C2049.22 644.568 2049.78 645.474 2050.37 646.408C2061.11 664.327 2068.26 684.893 2073.49 705.04C2073.9 706.619 2074.33 708.194 2074.76 709.768C2075.46 712.346 2076.14 714.927 2076.82 717.512C2077.16 718.827 2077.51 720.142 2077.85 721.456C2083.14 741.581 2087.18 761.881 2090.05 782.488C2090.48 785.556 2090.97 788.597 2091.55 791.64C2094.41 807.036 2096.02 822.646 2097.75 838.198C2097.94 839.952 2098.14 841.706 2098.33 843.461C2100.3 861.185 2102.01 878.907 2103.18 896.703C2103.41 900.168 2103.67 903.63 2103.93 907.093C2104.71 917.413 2105.39 927.657 2105.1 938.009C2100.38 935.097 2096.03 931.826 2091.73 928.338C2084.3 922.328 2076.61 916.706 2068.88 911.097C2068.24 910.637 2067.61 910.176 2066.96 909.701C2044.17 893.123 2021 877.113 1996.77 862.69C1995.03 861.65 1993.29 860.601 1991.56 859.544C1988.43 857.639 1985.27 855.767 1982.11 853.91C1981.33 853.453 1980.56 852.997 1979.76 852.526C1937.39 827.727 1892.7 806.527 1846.17 790.756C1843.71 789.911 1841.27 789.038 1838.82 788.161C1827.05 783.966 1815.23 780.365 1803.11 777.291C1800.52 776.632 1797.92 775.962 1795.33 775.288C1776.11 770.303 1756.62 765.383 1736.83 763.355C1734.83 763.127 1733.01 762.792 1731.08 762.242C1731.08 760.56 1731.08 760.56 1732.19 759.433C1732.73 758.99 1733.26 758.546 1733.81 758.089C1736.9 755.475 1739.9 752.787 1742.87 750.047C1749.03 744.39 1755.35 738.936 1761.71 733.506C1764.93 730.759 1768.13 727.995 1771.32 725.22C1776.17 721.006 1781.06 716.861 1786.05 712.824C1788.17 711.092 1790.26 709.329 1792.34 707.552C1797.2 703.402 1802.17 699.427 1807.26 695.563C1810.07 693.435 1812.84 691.267 1815.62 689.097C1840.43 669.704 1866.28 651.712 1893.66 636.093C1894.25 635.751 1894.85 635.409 1895.46 635.056C1918.17 622.011 1942.16 611.539 1967.79 605.817C1968.57 605.626 1969.36 605.435 1970.16 605.239C1982.43 602.669 1997.14 602.625 2009.07 606.658Z" fill="#FFDA7E"/>
<path d="M1357.89 792.516C1365.52 819.424 1371.74 846.484 1377.23 873.903C1377.81 876.781 1378.39 879.658 1378.98 882.533C1381.06 892.683 1382.84 902.864 1384.48 913.093C1384.61 913.885 1384.74 914.677 1384.87 915.493C1386.71 926.901 1388.52 938.307 1389.91 949.781C1390.01 950.619 1390.11 951.457 1390.22 952.321C1391.74 964.682 1392.84 977.029 1393.57 989.457C1393.63 990.463 1393.69 991.468 1393.76 992.504C1393.81 993.39 1393.86 994.276 1393.91 995.189C1394.07 997.693 1394.07 997.693 1394.54 1000.03C1394.99 1002.95 1395.07 1005.71 1395.08 1008.67C1395.08 1009.23 1395.09 1009.8 1395.09 1010.39C1395.1 1012.26 1395.1 1014.13 1395.1 1016.01C1395.1 1017.33 1395.11 1018.65 1395.11 1019.97C1395.11 1022.75 1395.12 1025.53 1395.12 1028.31C1395.12 1031.12 1395.12 1033.93 1395.13 1036.74C1395.2 1052.41 1395.12 1067.91 1393.27 1083.5C1393.16 1084.55 1393.05 1085.59 1392.93 1086.67C1390.62 1106.47 1386.26 1133.84 1369.61 1147.14C1363.78 1151.32 1357.61 1153.49 1350.31 1152.46C1323.82 1145.73 1305.79 1116.68 1292.59 1094.85C1251.24 1025.07 1226.95 944.383 1205.58 852.909C1205.44 852.263 1205.29 851.618 1205.15 850.952C1204.75 849.141 1204.37 847.328 1203.98 845.515C1203.77 844.509 1203.56 843.504 1203.34 842.469C1202.88 839.509 1202.81 836.715 1202.89 833.724C1229.58 824.1 1229.58 824.1 1241.52 820.789C1243.61 820.187 1245.7 819.542 1247.78 818.892C1258.68 815.495 1269.63 812.571 1280.72 809.877C1286.26 808.515 1291.75 807.008 1297.25 805.51C1308.02 802.577 1318.85 800.112 1329.78 797.824C1332.12 797.331 1334.46 796.836 1336.79 796.341C1338.23 796.038 1339.66 795.736 1341.1 795.434C1342.08 795.228 1342.08 795.228 1343.09 795.017C1343.72 794.883 1344.36 794.75 1345.01 794.613C1346.35 794.326 1347.68 794.028 1349 793.72C1349.67 793.565 1350.33 793.411 1351.02 793.252C1351.91 793.041 1351.91 793.041 1352.82 792.825C1354.52 792.516 1354.52 792.516 1357.89 792.516Z" fill="#E2A203"/>
<path d="M784.873 1022.73C790.183 1022.74 795.493 1022.73 800.803 1022.72C825.092 1022.69 849.275 1023.05 873.517 1024.63C871.961 1028.02 869.705 1030.28 867.041 1032.83C863.639 1036.11 860.457 1039.49 857.366 1043.07C854.729 1046.06 851.951 1048.92 849.193 1051.8C844.753 1056.48 840.516 1061.19 836.504 1066.24C834.638 1068.52 832.669 1070.67 830.66 1072.83C827.067 1076.73 823.776 1080.78 820.532 1084.97C818.077 1088.13 815.56 1091.22 812.97 1094.27C804.144 1104.78 796.062 1115.88 788.087 1127.04C787.205 1128.28 786.322 1129.51 785.437 1130.74C779.566 1138.91 773.94 1147.2 768.541 1155.68C767.377 1157.5 766.201 1159.32 765.022 1161.13C739.006 1201.38 718.57 1244.74 702.932 1289.96C702.722 1290.57 702.511 1291.18 702.294 1291.8C699.782 1299.06 697.543 1306.33 695.647 1313.78C694.777 1317.02 693.673 1320.07 692.402 1323.18C688.8 1319.84 686.127 1316.22 683.399 1312.14C682.934 1311.46 682.469 1310.77 681.99 1310.06C680.401 1307.71 678.82 1305.36 677.239 1303C676.646 1302.12 676.052 1301.24 675.441 1300.33C640.837 1248.97 606.95 1195.02 590.472 1134.8C590.27 1134.07 590.068 1133.34 589.86 1132.59C587.205 1122.58 586.785 1112.67 586.734 1102.37C586.726 1101.45 586.726 1101.45 586.718 1100.52C586.64 1086.24 589.419 1074.28 598.896 1063.32C599.308 1062.82 599.72 1062.33 600.144 1061.83C620.706 1039.29 657.609 1033.1 686.189 1028.68C686.877 1028.57 687.565 1028.46 688.274 1028.35C698.329 1026.81 708.384 1025.54 718.516 1024.63C719.309 1024.55 720.101 1024.48 720.918 1024.4C742.187 1022.41 763.533 1022.69 784.873 1022.73Z" fill="#FFDA7E"/>
<path d="M1452.26 1442.74C1458.04 1448.12 1460.49 1454.28 1460.91 1462.13C1461.49 1481.46 1453.45 1497.82 1440.95 1512.22C1434.03 1519.5 1425.9 1524.91 1416.86 1529.23C1422.19 1553.08 1422.19 1553.08 1437.08 1571.28C1452.63 1580 1471.55 1582.7 1488.94 1578.32C1491.04 1577.7 1493.13 1577.03 1495.2 1576.32C1495.73 1576.14 1496.26 1575.96 1496.8 1575.78C1509.05 1571.5 1519.58 1565.01 1529.74 1556.98C1530.46 1556.42 1531.18 1555.85 1531.92 1555.27C1534.84 1552.95 1537.74 1550.61 1540.6 1548.21C1541.41 1547.53 1542.23 1546.85 1543.06 1546.15C1544.16 1545.22 1544.16 1545.22 1545.29 1544.27C1549.98 1540.8 1554.39 1540.32 1560.07 1541C1565.64 1542.55 1569.06 1546.14 1571.86 1551.09C1573.29 1555.5 1573.65 1560.37 1571.99 1564.74C1567.88 1571.62 1560.19 1578.26 1553.09 1581.97C1549.62 1584.88 1549.41 1588.18 1548.64 1592.51C1548.3 1594.2 1547.95 1595.88 1547.6 1597.57C1547.35 1598.81 1547.35 1598.81 1547.09 1600.07C1542.56 1621.18 1532.34 1640.42 1518.79 1657.06C1518.44 1657.5 1518.08 1657.94 1517.71 1658.39C1514.72 1662.04 1511.45 1664.98 1507.84 1667.99C1507.24 1668.51 1506.65 1669.03 1506.04 1669.56C1492.89 1680.65 1477.28 1687.47 1460.67 1691.54C1459.7 1691.79 1458.74 1692.04 1457.75 1692.3C1435.95 1697.13 1410.27 1695.71 1389.9 1686.49C1388.65 1685.95 1388.65 1685.95 1387.38 1685.4C1369.28 1677.05 1356.26 1661.76 1348.63 1643.6C1348.37 1642.69 1348.37 1642.69 1348.1 1641.76C1347.58 1639.96 1347.09 1638.47 1346.1 1636.87C1343.71 1635.89 1342.1 1635.44 1339.62 1635.09C1333.27 1633.83 1328.8 1632.27 1324.74 1626.97C1322.04 1622.46 1321.55 1617.61 1322.51 1612.48C1324.73 1607.5 1327.83 1604.1 1332.62 1601.55C1334.97 1600.77 1336.55 1600.55 1338.99 1600.5C1339.98 1600.47 1339.98 1600.47 1341 1600.43C1343.39 1600.69 1345.24 1601.22 1347.52 1601.97C1352.03 1603.38 1356.14 1603.61 1360.84 1603.55C1361.58 1603.56 1362.31 1603.57 1363.07 1603.58C1369.21 1603.55 1375.55 1603.03 1380.26 1598.77C1381.84 1596.36 1383.39 1593.95 1384.85 1591.46C1385.3 1590.75 1385.74 1590.03 1386.2 1589.3C1393.59 1575.78 1387.72 1556.53 1384.47 1542.42C1384.01 1540.16 1384.01 1540.16 1384.01 1537.64C1383.52 1537.65 1383.03 1537.66 1382.53 1537.68C1359.92 1538.21 1342.72 1530.76 1326.06 1515.19C1318.41 1507.24 1313.71 1498.16 1313.67 1487.07C1313.84 1478.79 1315.07 1471.99 1320.56 1465.49C1339.76 1447.11 1373.01 1440.38 1398.33 1435.88C1399.68 1435.62 1399.68 1435.62 1401.05 1435.35C1417.76 1432.48 1438.59 1431.37 1452.26 1442.74Z" fill="#232222"/>
<path d="M1077.38 1997.66C1398.18 1997.66 1718.98 1997.66 2049.5 1997.66C2048.25 2003.9 2048.25 2003.9 2046.97 2010.27C2046.97 2015.75 2047.68 2019.24 2050.48 2023.91C2056.94 2030.18 2065.25 2029.32 2073.62 2029.38C2075.25 2029.4 2076.88 2029.42 2078.51 2029.45C2083.97 2029.52 2089.44 2029.56 2094.9 2029.6C2098.08 2029.63 2101.26 2029.66 2104.45 2029.68C2123.53 2029.84 2142.61 2029.95 2161.69 2030.05C2169.87 2030.09 2178.05 2030.14 2186.23 2030.19C2202.99 2030.28 2219.75 2030.37 2236.51 2030.46C2236.51 2030.74 2236.51 2031.01 2236.51 2031.3C2162.72 2031.37 2088.93 2031.45 1997.07 2031.54C1995.85 2031.54 1994.64 2031.54 1993.43 2031.54C1967.87 2031.57 1942.32 2031.59 1916.77 2031.62C1903.91 2031.63 1891.06 2031.64 1878.2 2031.66C1876.26 2031.66 1874.32 2031.66 1872.39 2031.66C1834.83 2031.7 1797.28 2031.74 1759.73 2031.77C1699.4 2031.84 1639.07 2031.9 1578.73 2031.95C1576.91 2031.96 1575.09 2031.96 1573.26 2031.96C1514.37 2032.02 1455.47 2032.07 1045.37 2032.14C1047.32 2030.15 1049.35 2028.47 1051.58 2026.78C1060.56 2019.62 1073.65 2008.83 1077.38 1997.66Z" fill="#332C2A"/>
<path d="M2381.4 1634.35C2392.97 1644.41 2402.12 1658.76 2403.49 1674.31C2403.95 1684.75 2404.12 1694.32 2397.14 1702.73C2396.13 1703.78 2395.09 1704.82 2394.04 1705.83C2393.61 1706.26 2393.17 1706.69 2392.73 1707.13C2360.96 1736.48 2302.06 1741.38 2261.04 1741.31C2260.16 1741.31 2260.16 1741.31 2259.25 1741.31C2244.03 1741.28 2226.74 1740.9 2213.76 1731.9C2213.24 1731.54 2212.72 1731.18 2212.18 1730.81C2205.2 1725.44 2200.52 1716.12 2199.18 1707.5C2196.79 1687.7 2200.7 1670.3 2212.29 1653.86C2224.59 1638.37 2239.63 1627.35 2257.57 1619.21C2258.09 1618.97 2258.61 1618.73 2259.15 1618.49C2297.14 1601.39 2349.61 1607.26 2381.4 1634.35Z" fill="#FFDA7E"/>
<path d="M1871.07 1205.02C1872.71 1206.55 1874.34 1208.1 1875.97 1209.65C1876.67 1210.29 1877.37 1210.94 1878.09 1211.6C1907.28 1239.33 1922.72 1280.43 1924.12 1320.04C1924.98 1354.93 1914.05 1391.2 1892.81 1419.06C1892.15 1419.97 1891.48 1420.88 1890.82 1421.8C1873.39 1445.29 1849.2 1463.03 1822.05 1473.72C1821.4 1473.98 1820.75 1474.24 1820.08 1474.51C1804.59 1480.57 1788.2 1484.49 1771.51 1484.65C1770.76 1484.67 1770.02 1484.68 1769.25 1484.69C1722.59 1485.34 1682.05 1469.81 1648.27 1437.59C1623.7 1413.6 1609.4 1382.28 1603.42 1348.87C1603.17 1347.52 1602.9 1346.17 1602.57 1344.83C1602.02 1341.52 1602.02 1338.24 1601.99 1334.88C1601.98 1334.14 1601.97 1333.39 1601.96 1332.63C1601.94 1330.22 1601.93 1327.8 1601.93 1325.39C1601.92 1324.57 1601.92 1323.75 1601.92 1322.91C1601.91 1310.58 1602.55 1299.02 1605.56 1287.02C1605.81 1285.9 1606.05 1284.78 1606.3 1283.66C1612.76 1256.42 1628.18 1231.71 1647.4 1211.66C1648.35 1210.66 1649.3 1209.65 1650.24 1208.63C1665.28 1192.88 1685.07 1181.82 1704.96 1173.49C1705.83 1173.12 1706.7 1172.76 1707.59 1172.38C1713.42 1170.11 1719.48 1168.81 1725.58 1167.46C1728.4 1166.91 1728.4 1166.91 1730.23 1165.92C1780.83 1156.9 1832.94 1170.22 1871.07 1205.02ZM1659.47 1228.99C1656.78 1231.97 1654.3 1235.04 1651.89 1238.24C1651.33 1238.95 1650.78 1239.67 1650.2 1240.4C1639.81 1254.04 1632.44 1269.85 1627.46 1286.18C1627.21 1286.95 1626.96 1287.73 1626.7 1288.53C1623.18 1300.08 1622.93 1312.4 1622.99 1324.39C1622.99 1325.03 1622.99 1325.67 1622.99 1326.33C1623.02 1335.87 1623.5 1345.01 1625.78 1354.3C1626.01 1355.34 1626.24 1356.39 1626.49 1357.47C1635.21 1393.35 1658.27 1424.11 1689.57 1443.51C1720.89 1462.42 1758.45 1469.23 1794.27 1460.77C1829.02 1451.76 1858.96 1431.69 1879.24 1401.93C1880.07 1400.71 1880.93 1399.49 1881.78 1398.28C1894.26 1379.86 1902.19 1354.69 1902.22 1332.5C1902.22 1331.81 1902.23 1331.12 1902.23 1330.41C1902.23 1328.96 1902.24 1327.52 1902.24 1326.07C1902.24 1323.89 1902.25 1321.71 1902.27 1319.53C1902.31 1308.23 1901.35 1297.6 1898.13 1286.71C1897.8 1285.58 1897.8 1285.58 1897.47 1284.44C1895.36 1277.44 1892.61 1270.89 1889.44 1264.31C1888.81 1262.95 1888.81 1262.95 1888.15 1261.57C1871.67 1227.43 1841.69 1203.47 1806.4 1191.01C1754.18 1172.99 1697.2 1190.19 1659.47 1228.99Z" fill="#040C2E"/>
<path d="M1035.76 1304.46C1038.31 1304.47 1040.86 1304.46 1043.4 1304.45C1045.05 1304.45 1046.7 1304.45 1048.35 1304.46C1049.09 1304.45 1049.84 1304.45 1050.61 1304.45C1055.3 1304.48 1059.7 1305.02 1064.3 1305.94C1066.4 1306.36 1068.51 1306.68 1070.64 1306.99C1112.15 1314.57 1148.63 1341.41 1172.57 1375.32C1181.83 1389.43 1188.68 1404.71 1193.52 1420.84C1193.75 1421.6 1193.98 1422.36 1194.22 1423.15C1197.88 1435.99 1199.11 1448.87 1199.01 1462.18C1199 1464.41 1199.01 1466.64 1199.03 1468.88C1199.04 1481.93 1197.77 1495.02 1194 1507.57C1193.79 1508.28 1193.58 1508.99 1193.37 1509.72C1185.75 1534.55 1172.9 1556.83 1155.19 1575.8C1154.42 1576.62 1154.42 1576.62 1153.64 1577.46C1137.52 1594.43 1117.81 1606.47 1096.17 1615.07C1094.51 1615.73 1092.87 1616.42 1091.23 1617.1C1054.68 1631.48 1010.55 1628.28 974.914 1613.23C964.336 1608.62 954.542 1603.16 945.121 1596.51C944.64 1596.17 944.159 1595.83 943.663 1595.48C912.128 1573.06 887.031 1536.27 880.25 1497.83C879.801 1495.07 879.404 1492.29 879.029 1489.52C878.678 1486.4 878.678 1486.4 877.729 1483.81C877.649 1482.61 877.613 1481.41 877.607 1480.21C877.599 1479.12 877.599 1479.12 877.591 1478.02C877.59 1477.23 877.589 1476.45 877.588 1475.64C877.585 1474.83 877.582 1474.02 877.58 1473.18C877.575 1471.46 877.573 1469.73 877.573 1468.01C877.572 1465.4 877.556 1462.79 877.54 1460.18C877.516 1451.94 877.515 1443.95 879.414 1435.88C879.542 1435.28 879.669 1434.69 879.801 1434.07C885.181 1409.83 894.629 1387.56 909.74 1367.76C910.292 1367.03 910.844 1366.3 911.412 1365.54C914.606 1361.44 918.027 1357.56 921.534 1353.72C922.133 1353.06 922.133 1353.06 922.745 1352.39C943.557 1329.96 971.209 1316.18 1000.4 1308.31C1001.03 1308.14 1001.65 1307.97 1002.29 1307.79C1013.45 1304.88 1024.29 1304.41 1035.76 1304.46ZM998.087 1330.54C997.044 1330.86 997.044 1330.86 995.981 1331.19C981.876 1335.67 969.009 1342.45 956.915 1350.94C956.076 1351.52 955.238 1352.1 954.374 1352.7C929.731 1370.69 912.857 1396.06 903.844 1424.94C903.529 1425.94 903.214 1426.93 902.889 1427.95C899.218 1440.06 898.443 1451.89 898.473 1464.47C898.474 1465.19 898.474 1465.91 898.475 1466.66C898.508 1477.98 899.1 1488.82 902.159 1499.79C902.339 1500.44 902.52 1501.09 902.706 1501.77C909.076 1523.91 920.491 1546.19 937.539 1562.02C941.751 1566.23 941.751 1566.23 943.005 1567.63C958.53 1584.33 981.696 1594.51 1003.25 1600.71C1004.74 1601.16 1004.74 1601.16 1006.26 1601.61C1039.97 1610.75 1077.78 1603.32 1107.78 1586.66C1121.23 1578.94 1134.01 1568.91 1143.93 1556.98C1144.51 1556.3 1145.1 1555.62 1145.71 1554.91C1159.61 1538.51 1171.01 1517.65 1175.09 1496.43C1175.21 1495.9 1175.32 1495.38 1175.44 1494.84C1183.2 1458.04 1175.81 1419.54 1155.55 1388.05C1150.97 1381.15 1145.82 1374.92 1140.06 1368.99C1138.88 1367.76 1137.72 1366.52 1136.57 1365.27C1121.93 1349.71 1103.17 1339.63 1083.27 1332.43C1082.67 1332.22 1082.07 1332 1081.46 1331.78C1068 1327.02 1054.51 1325.27 1040.28 1325.38C1038.21 1325.39 1036.13 1325.38 1034.05 1325.36C1021.79 1325.34 1009.81 1326.84 998.087 1330.54Z" fill="#040C2E"/>
<path d="M1151.51 853.068C1153.64 855.624 1154.71 857.959 1155.73 861.114C1156.04 862.049 1156.34 862.984 1156.65 863.947C1156.97 864.954 1157.29 865.96 1157.61 866.997C1157.95 868.042 1158.28 869.088 1158.62 870.164C1162 880.896 1164.85 891.757 1167.51 902.687C1167.67 903.322 1167.83 903.957 1167.99 904.611C1170.68 915.549 1173.1 926.51 1175.15 937.588C1175.29 938.366 1175.43 939.144 1175.58 939.946C1180.14 964.972 1182.88 990.762 1181.83 1016.22C1181.81 1016.84 1181.8 1017.46 1181.78 1018.1C1181.19 1036.86 1178.79 1058.97 1165.46 1073.36C1160.95 1077.52 1156.4 1078.97 1150.33 1078.74C1136.26 1076.9 1124.89 1064.22 1116.55 1053.62C1098 1029.29 1085.3 1000.61 1074.95 972.016C1074.73 971.385 1074.5 970.754 1074.26 970.104C1071.14 961.435 1068.27 952.71 1065.58 943.896C1065.32 943.035 1065.06 942.175 1064.78 941.289C1061.84 931.624 1059.16 921.916 1056.79 912.096C1056.57 911.193 1056.35 910.29 1056.13 909.359C1054.63 903.02 1054.63 903.02 1054.63 900.164C1086.37 883.151 1118.36 867.186 1151.51 853.068Z" fill="#E2A203"/>
<path d="M2302.22 1219.74C2344.34 1308.8 2344.34 1308.8 2344.34 1328.23C2329.87 1333.24 2315.41 1338.24 2300.93 1343.2C2299.09 1343.83 2297.25 1344.46 2295.42 1345.1C2187.56 1382.15 2187.56 1382.15 2146.37 1382.42C2145.02 1382.43 2145.02 1382.43 2143.65 1382.45C2137.38 1382.38 2131.98 1381.45 2126.52 1378.27C2124.41 1374.59 2124.63 1371.02 2125.31 1366.91C2126.55 1363.5 2128.33 1360.66 2130.37 1357.66C2130.93 1356.83 2131.5 1356 2132.09 1355.14C2137.18 1348.09 2143.33 1341.98 2149.48 1335.85C2149.9 1335.43 2150.32 1335.01 2150.75 1334.58C2155.6 1329.77 2160.53 1325.08 2165.75 1320.66C2166.2 1320.27 2166.64 1319.89 2167.1 1319.49C2172.65 1314.71 2178.3 1310.11 2184.09 1305.63C2187.42 1303.03 2190.66 1300.34 2193.86 1297.58C2198.88 1293.29 2204.11 1289.34 2209.41 1285.42C2212.37 1283.24 2215.29 1281.01 2218.2 1278.77C2225.52 1273.13 2232.98 1267.69 2240.5 1262.32C2243.67 1260.05 2246.83 1257.76 2249.99 1255.48C2251.26 1254.57 2252.53 1253.65 2253.79 1252.74C2256.27 1250.95 2258.74 1249.17 2261.21 1247.37C2270.66 1240.51 2280.23 1233.83 2289.85 1227.2C2291.4 1226.12 2292.96 1225.02 2294.5 1223.92C2295.26 1223.38 2296.01 1222.84 2296.79 1222.28C2297.81 1221.55 2297.81 1221.55 2298.85 1220.8C2300.53 1219.74 2300.53 1219.74 2302.22 1219.74Z" fill="#E2A203"/>
<path d="M1533.11 772.333C1535.75 794.864 1537.96 817.419 1539.9 840.02C1540.06 841.964 1540.23 843.908 1540.4 845.852C1541.91 863.493 1543.23 881.093 1543.7 898.797C1543.71 899.45 1543.73 900.102 1543.75 900.773C1545.56 970.495 1545.56 970.495 1534.32 986.09C1532.33 988.095 1530.76 989.15 1527.95 989.592C1520.82 989.319 1515.02 984.414 1510.3 979.438C1483.1 947.483 1465.67 905.446 1448.87 867.365C1448.4 866.295 1448.4 866.295 1447.92 865.202C1438.5 843.891 1429.34 822.484 1420.59 800.888C1418.79 796.454 1416.94 792.044 1415.05 787.647C1414.34 785.789 1414.34 785.789 1414.34 784.107C1413.5 783.83 1412.67 783.552 1411.81 783.266C1428.09 780.633 1444.4 778.769 1460.81 777.127C1464.63 776.743 1468.44 776.332 1472.24 775.899C1479.98 775.019 1487.72 774.276 1495.48 773.651C1496.8 773.544 1498.12 773.433 1499.43 773.319C1510.67 772.341 1521.83 772.197 1533.11 772.333Z" fill="#E2A203"/>
<path d="M1035.87 1325.44C1037.98 1325.44 1040.09 1325.42 1042.2 1325.4C1055.78 1325.35 1068.36 1327.27 1081.22 1331.75C1082.19 1332.08 1083.16 1332.42 1084.17 1332.76C1097.1 1337.28 1108.38 1342.96 1119.5 1350.94C1120.83 1351.86 1120.83 1351.86 1122.18 1352.81C1135 1362.13 1146.24 1373.83 1154.88 1387.1C1155.21 1387.61 1155.54 1388.11 1155.88 1388.64C1170.8 1411.71 1177.79 1436.69 1177.88 1464.1C1177.89 1464.75 1177.89 1465.4 1177.89 1466.07C1177.92 1503.64 1163.08 1537.47 1137.19 1564.55C1135.02 1566.61 1132.75 1568.53 1130.45 1570.44C1129.76 1571.02 1129.08 1571.61 1128.38 1572.22C1105.29 1591.72 1074.95 1604.42 1044.52 1604.92C1043.98 1604.93 1043.44 1604.95 1042.88 1604.96C1033.75 1605.23 1024.92 1604.55 1015.88 1603.23C1015.04 1603.11 1014.2 1602.99 1013.34 1602.87C982.723 1597.85 952.333 1580.81 932.485 1556.98C931.646 1556.03 931.646 1556.03 930.79 1555.06C918.451 1540.73 910.265 1524.19 904.353 1506.37C903.933 1505.11 903.497 1503.85 903.057 1502.6C899.235 1491.09 898.366 1479 898.46 1466.97C898.473 1464.89 898.46 1462.82 898.444 1460.74C898.426 1448.5 899.93 1436.54 903.633 1424.84C903.847 1424.14 904.062 1423.45 904.283 1422.74C908.77 1408.65 915.558 1395.81 924.061 1383.73C924.645 1382.9 925.229 1382.06 925.831 1381.2C943.849 1356.6 969.261 1339.75 998.192 1330.75C999.186 1330.44 1000.18 1330.12 1001.21 1329.8C1012.71 1326.32 1023.91 1325.41 1035.87 1325.44ZM999.876 1351.78C998.833 1352.14 997.789 1352.5 996.714 1352.88C975.658 1360.75 957.004 1374.21 943.436 1392.14C942.937 1392.8 942.439 1393.45 941.926 1394.12C933.899 1405.09 927.482 1417.39 923.794 1430.48C923.411 1431.83 923 1433.18 922.564 1434.52C916.136 1454.35 917.307 1477.48 923.218 1497.27C923.439 1498.01 923.66 1498.75 923.888 1499.52C933.346 1530.33 954.186 1555.15 982.47 1570.54C1009.27 1584.71 1042.05 1588.66 1071.26 1579.83C1095.7 1572.07 1117.46 1558.29 1132.97 1537.64C1133.6 1536.81 1134.22 1535.98 1134.86 1535.13C1145.36 1520.57 1152.05 1504.72 1155.72 1487.18C1155.93 1486.18 1155.93 1486.18 1156.15 1485.17C1157.29 1479.5 1157.67 1474.08 1157.61 1468.31C1157.61 1467 1157.61 1467 1157.6 1465.66C1157.41 1452.03 1156.01 1439.52 1151.51 1426.63C1151.19 1425.68 1150.86 1424.73 1150.53 1423.75C1145.39 1409.52 1137.4 1396.58 1127.07 1385.54C1125.71 1384.08 1124.46 1382.61 1123.23 1381.05C1110.64 1366.54 1091.88 1357.12 1074.01 1350.94C1072.53 1350.42 1072.53 1350.42 1071.02 1349.88C1048.87 1342.83 1021.63 1344.04 999.876 1351.78Z" fill="#FCED00"/>
<path d="M1805.73 1190.83C1806.61 1191.13 1807.49 1191.43 1808.4 1191.73C1842.83 1203.64 1872.44 1229.03 1888.61 1261.83C1890.42 1265.69 1892.06 1269.61 1893.66 1273.57C1893.97 1274.32 1894.29 1275.07 1894.62 1275.85C1899.46 1288.03 1902.2 1301.57 1902.22 1314.65C1902.22 1315.34 1902.23 1316.04 1902.23 1316.75C1902.23 1318.21 1902.24 1319.67 1902.24 1321.12C1902.24 1323.32 1902.25 1325.52 1902.27 1327.71C1902.31 1338.9 1901.1 1349.27 1898.08 1360.08C1897.75 1361.28 1897.75 1361.28 1897.41 1362.49C1887.2 1398.32 1863.25 1427.78 1831.06 1446.28C1826.18 1448.98 1821.33 1451.47 1816.16 1453.54C1815.6 1453.76 1815.04 1453.99 1814.47 1454.22C1786.39 1465.31 1755.19 1467.54 1726.02 1459.42C1725.26 1459.22 1724.49 1459.01 1723.7 1458.8C1689.23 1449.17 1658.72 1424.81 1641.15 1393.77C1637.97 1388.04 1635.09 1382.2 1632.51 1376.17C1632.14 1375.31 1631.77 1374.45 1631.39 1373.56C1629.32 1368.51 1627.73 1363.44 1626.46 1358.14C1626.26 1357.33 1626.26 1357.33 1626.06 1356.5C1623.8 1346.52 1622.97 1336.68 1623.03 1326.48C1623.04 1324.61 1623.03 1322.74 1623.02 1320.87C1623 1309.77 1623.59 1298.44 1626.83 1287.76C1627.01 1287.13 1627.2 1286.5 1627.38 1285.86C1632.54 1268.76 1640.71 1252.22 1651.89 1238.24C1652.27 1237.76 1652.65 1237.28 1653.05 1236.78C1675.32 1209.1 1708.23 1189.25 1743.85 1185.16C1764.57 1183.17 1785.92 1184.13 1805.73 1190.83ZM1730.02 1208.97C1729.42 1209.15 1728.82 1209.33 1728.2 1209.51C1697.06 1219.17 1671.68 1240.95 1656.36 1269.52C1648.9 1283.82 1644.07 1299.3 1643.53 1315.51C1643.48 1316.79 1643.43 1318.08 1643.37 1319.36C1642.52 1338.84 1646.13 1356.83 1654.42 1374.48C1654.7 1375.1 1654.99 1375.72 1655.28 1376.36C1668.62 1404.67 1693.42 1425.92 1722.65 1436.72C1725.04 1437.54 1727.44 1438.3 1729.86 1439.03C1730.41 1439.2 1730.95 1439.36 1731.52 1439.54C1741.37 1442.37 1751.31 1442.92 1761.51 1442.87C1762.12 1442.86 1762.73 1442.86 1763.36 1442.86C1794.75 1442.68 1822.88 1431.58 1845.64 1409.81C1846.32 1409.18 1847 1408.55 1847.7 1407.91C1862.53 1393.82 1871.88 1375.84 1877.61 1356.42C1878.14 1354.63 1878.71 1352.85 1879.33 1351.09C1882.12 1342.28 1882.16 1332.87 1882.13 1323.71C1882.12 1323.14 1882.12 1322.57 1882.12 1321.98C1882.08 1313.41 1881.62 1305.41 1879.33 1297.11C1879.05 1295.97 1878.76 1294.82 1878.47 1293.67C1870.39 1263.05 1850.16 1237.11 1823.03 1220.91C1804.67 1210.34 1784.35 1205.1 1763.21 1205.23C1761.35 1205.23 1759.48 1205.23 1757.61 1205.21C1748.12 1205.2 1739.13 1206.23 1730.02 1208.97Z" fill="#FCED00"/>
<path d="M1452.27 1442.74C1458.04 1448.12 1460.49 1454.28 1460.91 1462.13C1461.49 1481.46 1453.45 1497.82 1440.95 1512.22C1431.49 1522.17 1420.31 1528.5 1407.17 1532.22C1405.83 1532.6 1405.83 1532.6 1404.46 1532.99C1383.1 1538.95 1365.06 1540.17 1345.23 1529.33C1332.08 1521.82 1320.46 1512.03 1314.83 1497.67C1312.49 1488.44 1313.03 1477.65 1317.68 1469.28C1331.81 1448.48 1369.42 1441.72 1392.27 1436.98C1394.29 1436.6 1396.31 1436.23 1398.33 1435.88C1399.68 1435.62 1399.68 1435.62 1401.05 1435.35C1417.76 1432.48 1438.59 1431.37 1452.27 1442.74Z" fill="#020A2F"/>
<path d="M678.082 1642.76C704.01 1642.62 729.726 1643.11 755.582 1645.18C756.882 1645.28 756.882 1645.28 758.207 1645.38C817.664 1650.12 817.664 1650.12 828.028 1661.26C832.179 1667.22 832.787 1672.65 832.24 1679.76C829.261 1689.68 821.382 1694.15 812.753 1698.87C794.604 1707.97 773.17 1713.23 753.03 1715.51C750.115 1715.86 747.227 1716.31 744.332 1716.79C735.777 1718.21 727.215 1719.24 718.585 1720.08C716.388 1720.29 714.191 1720.52 711.995 1720.74C704.889 1721.45 697.871 1722.08 690.718 1721.81C687.216 1704.11 683.832 1686.4 681.083 1668.57C680.925 1667.56 680.925 1667.56 680.764 1666.52C679.535 1658.61 678.546 1650.76 678.082 1642.76Z" fill="#E2A303"/>
<path d="M2321.1 1469.19C2333.74 1475.93 2340.81 1487.7 2345.27 1500.84C2349.03 1514.89 2347.31 1528.75 2340.28 1541.47C2335.93 1548.05 2330.2 1552.66 2322.43 1554.45C2312.41 1555.72 2305.4 1553.71 2297.4 1547.68C2286.69 1538.62 2279.84 1525.6 2278.63 1511.56C2277.91 1497.88 2280.27 1485.45 2289.36 1474.73C2298.11 1466.22 2309.87 1464.49 2321.1 1469.19Z" fill="#FFDA7E"/>
<path d="M2209.99 1497.66C2220.39 1504.06 2227.05 1512.81 2231.46 1524.18C2231.8 1525.06 2232.15 1525.95 2232.51 1526.86C2235.85 1539.37 2235.65 1555.32 2229.38 1566.8C2228.19 1568.65 2226.92 1570.38 2225.56 1572.12C2225.04 1572.88 2224.52 1573.64 2223.98 1574.43C2219.83 1578.82 2214.24 1581.87 2208.23 1582.55C2197.9 1582.79 2191.2 1580.37 2183.18 1573.59C2176.37 1567.06 2172.34 1559.9 2169.12 1551.09C2168.82 1550.3 2168.52 1549.5 2168.21 1548.69C2166.61 1543.26 2166.44 1537.79 2166.43 1532.17C2166.42 1531.57 2166.41 1530.98 2166.4 1530.37C2166.37 1519.78 2170.89 1509.43 2178.07 1501.68C2187 1493.47 2199.17 1491.91 2209.99 1497.66Z" fill="#FFDA7E"/>
<path d="M2157.07 1590.05C2169.14 1598.82 2177.28 1610.16 2180.52 1624.86C2182.37 1637.74 2181.04 1652.06 2173.33 1662.94C2172.97 1663.47 2172.61 1663.99 2172.24 1664.53C2168.18 1669.8 2162.28 1673.78 2155.64 1674.72C2146.8 1675.61 2139.85 1673.89 2132.75 1668.47C2122.38 1659.64 2114.44 1647.56 2113.34 1633.69C2112.78 1619.1 2113.6 1607.58 2122.79 1595.66C2131.26 1586.65 2146.14 1583.53 2157.07 1590.05Z" fill="#FFDA7E"/>
<path d="M2415.98 1524.35C2427.93 1531.63 2435.83 1543.43 2439.32 1556.89C2441.88 1570.15 2441 1583.7 2434.47 1595.67C2429.62 1602.17 2424.67 1606.86 2416.78 1609.12C2407.72 1610.05 2399.84 1608.75 2392.25 1603.6C2381.3 1594.67 2374.9 1581.75 2372.98 1567.91C2371.77 1554.33 2373.46 1541.7 2382.06 1530.67C2391.07 1520.82 2403.92 1518.64 2415.98 1524.35Z" fill="#FFDA7E"/>
<path d="M1418.55 1599.87C1419.41 1600.31 1420.28 1600.74 1421.18 1601.19C1429.65 1605.37 1437.99 1608.58 1447.19 1610.8C1448.06 1611.02 1448.93 1611.24 1449.82 1611.47C1456.99 1613.16 1463.74 1613.72 1471.09 1613.64C1472.69 1613.63 1472.69 1613.63 1474.32 1613.62C1484.57 1613.46 1493.92 1612.11 1503.61 1608.66C1505.6 1608.22 1506.75 1608.58 1508.68 1609.12C1504.93 1617.61 1501.18 1625.47 1495.2 1632.67C1494.31 1633.75 1494.31 1633.75 1493.39 1634.86C1481 1649.21 1463.09 1658.8 1444.01 1660.32C1425.91 1661.29 1407.01 1661.43 1392.44 1649.02C1388 1644.88 1384.57 1640.86 1382.32 1635.19C1382.97 1634.95 1383.61 1634.7 1384.27 1634.45C1401.57 1627.59 1410.07 1615.76 1418.55 1599.87Z" fill="#F6898C"/>
<path d="M1813.08 1245.3C1820.47 1249.76 1824.42 1256.26 1827.11 1264.31C1827.82 1274.03 1826.78 1281.92 1820.38 1289.51C1814.31 1295.65 1807.11 1298.82 1798.52 1299.16C1791.22 1298.96 1784.48 1296.18 1779.09 1291.23C1772.56 1284.21 1770.01 1276.7 1770.36 1267.16C1771.27 1258.86 1775.38 1252.95 1781.62 1247.49C1791.42 1241.33 1802.55 1240.26 1813.08 1245.3Z" fill="#FBFBFB"/>
<path d="M1098.64 1386.91C1099.37 1387.42 1099.37 1387.42 1100.12 1387.94C1100.96 1388.49 1101.79 1389.05 1102.65 1389.62C1102.65 1390.18 1102.65 1390.73 1102.65 1391.3C1103.2 1391.3 1103.76 1391.3 1104.33 1391.3C1109.81 1398.56 1111.93 1405.85 1111.07 1414.85C1109.64 1422.78 1105.59 1428.92 1099.3 1433.92C1092.05 1438.65 1084.16 1439.33 1075.69 1438.4C1072.9 1437.62 1070.58 1436.53 1068.11 1435.03C1066.78 1434.31 1066.78 1434.31 1065.43 1433.56C1062.29 1431.05 1060.16 1428.31 1058 1424.94C1057.65 1424.4 1057.3 1423.86 1056.94 1423.3C1053.39 1416.78 1053.58 1408.48 1055.22 1401.39C1058.05 1393.61 1063.39 1388.43 1070.64 1384.57C1080.41 1380.49 1089.83 1381.06 1098.64 1386.91Z" fill="#FBFBFC"/>
</g>
<defs>
<clipPath id="clip0_1861_3114">
<rect width="2219.71" height="1582.75" fill="white" transform="translate(464.957 473.78)"/>
</clipPath>
</defs>
</svg>
