<svg width="129" height="181" viewBox="0 0 129 181" fill="none" xmlns="http://www.w3.org/2000/svg">
<g clip-path="url(#clip0_649_1347)">
<path d="M31.0159 -0.0338799C31.1138 -0.0342906 31.2117 -0.0347013 31.3126 -0.0351244C33.0726 -0.0388702 34.818 0.0700396 36.5442 0.409079C36.6874 0.436751 36.6874 0.436751 36.8334 0.464982C40.9448 1.28384 45.7859 2.82252 49.0562 5.40254C49.439 5.7044 49.6793 5.81663 50.1867 5.77783C50.4014 5.74568 50.6155 5.70932 50.8289 5.67007C50.9586 5.64848 51.0882 5.62689 51.2218 5.60464C51.5932 5.54133 51.9638 5.47505 52.3343 5.40716C54.1232 5.08105 55.9144 4.7947 57.7229 4.57971C57.855 4.56325 57.9871 4.54679 58.1233 4.52983C62.6325 3.988 67.4828 3.92603 71.9783 4.57971C72.1461 4.60337 72.3138 4.62701 72.4816 4.65063C74.2625 4.90415 76.0426 5.16353 77.7637 5.6722C78.9501 5.98338 79.4332 5.80189 80.5082 5.25437C81.958 4.54714 83.427 3.93933 84.9485 3.38031C85.0424 3.34525 85.1363 3.31018 85.2331 3.27405C93.4607 0.219302 102.938 -0.479291 111.356 2.28995C111.442 2.3181 111.527 2.34624 111.616 2.37524C112.157 2.55493 112.692 2.74491 113.226 2.94417C113.315 2.97706 113.404 3.00995 113.496 3.04384C114.986 3.66363 116.298 4.83044 116.965 6.21525C118.434 9.96601 116.828 14.3641 115.958 18.1151C115.368 20.663 114.816 23.2124 114.336 25.7804C114.311 25.9096 114.287 26.0389 114.262 26.172C114.027 27.4285 113.801 28.6862 113.602 29.9481C113.587 30.0389 113.572 30.1296 113.557 30.2232C113.382 31.3146 113.382 31.3146 113.678 32.3605C113.725 32.453 113.773 32.5454 113.821 32.6407C113.899 32.7868 113.899 32.7868 113.978 32.9359C114.086 33.1498 114.194 33.3639 114.301 33.5782C114.384 33.7421 114.384 33.7421 114.467 33.9094C119.053 43.2925 119.602 53.6775 115.796 64.6927C115.682 64.9731 115.565 65.2522 115.446 65.5309C115.589 65.5682 115.589 65.5682 115.734 65.6063C116.243 65.7824 116.679 66.0218 117.14 66.2874C117.233 66.3407 117.325 66.3941 117.421 66.4491C121.811 69.0208 125.743 73.2527 127.101 77.9747C127.886 81.2008 127.516 84.7794 125.962 87.7743C125.903 87.888 125.845 88.0017 125.784 88.1189C124.585 90.3189 122.677 92.203 120.12 93.008C119.965 93.008 119.811 93.008 119.652 93.008C120.033 93.6736 120.428 94.3302 120.833 94.9833C125.829 103.063 128.986 112.469 129.024 121.854C129.025 122.057 129.025 122.057 129.026 122.265C129.028 122.701 129.029 123.137 129.029 123.572C129.029 123.684 129.029 123.684 129.03 123.797C129.031 126.091 128.973 128.349 128.65 130.625C128.633 130.754 128.616 130.883 128.598 131.015C127.192 141.706 122.398 152.032 114.978 160.283C114.918 160.35 114.858 160.417 114.796 160.486C113.665 161.74 112.492 162.95 111.239 164.1C110.91 164.405 110.584 164.712 110.26 165.021C109.507 165.736 108.757 166.419 107.913 167.04C107.613 167.265 107.33 167.502 107.047 167.745C106.374 168.316 105.659 168.828 104.929 169.333C104.852 169.387 104.775 169.44 104.696 169.495C102.74 170.843 100.731 172.131 98.6197 173.259C98.5032 173.321 98.5032 173.321 98.3843 173.384C97.7657 173.713 97.142 174.032 96.5164 174.349C96.3664 174.426 96.3664 174.426 96.2134 174.504C93.503 175.882 90.6629 176.992 87.7528 177.947C87.5895 178.001 87.5895 178.001 87.423 178.056C82.6638 179.603 77.6913 180.481 72.6794 180.891C72.5077 180.905 72.5077 180.905 72.3325 180.92C71.4166 180.991 70.5073 181.019 69.5884 181.022C69.3699 181.023 69.3699 181.023 69.147 181.025C68.6789 181.027 68.2108 181.027 67.7426 181.027C67.6229 181.028 67.6229 181.028 67.5008 181.028C65.0416 181.028 62.6174 180.984 60.1767 180.673C60.0177 180.654 59.8587 180.634 59.6997 180.615C53.9417 179.902 48.32 178.495 43.0001 176.312C42.8784 176.262 42.7568 176.212 42.6314 176.16C39.1412 174.718 35.8656 172.977 32.7175 170.969C32.6333 170.915 32.549 170.862 32.4623 170.807C31.285 170.055 30.1653 169.254 29.0687 168.403C28.773 168.175 28.4737 167.95 28.175 167.725C27.673 167.342 27.1882 166.943 26.7094 166.535C26.5494 166.4 26.3887 166.265 26.2239 166.135C25.4478 165.519 24.7323 164.846 24.0124 164.174C23.7874 163.965 23.5616 163.756 23.3356 163.547C22.5993 162.863 21.8957 162.177 21.2536 161.413C21.0186 161.139 20.7697 160.882 20.5142 160.624C19.9032 159.996 19.356 159.327 18.8126 158.648C18.7173 158.529 18.7173 158.529 18.6201 158.408C17.7105 157.276 16.8284 156.132 16.0082 154.941C15.9388 154.84 15.9388 154.84 15.868 154.738C13.2639 150.96 11.1756 146.966 9.58161 142.728C9.53945 142.617 9.4973 142.506 9.45386 142.391C8.13035 138.869 7.23989 135.245 6.68232 131.552C6.66492 131.439 6.66492 131.439 6.64717 131.324C6.26584 128.81 6.14835 126.292 6.15651 123.756C6.15668 123.621 6.15685 123.486 6.15703 123.347C6.16204 121.175 6.25253 119.042 6.54356 116.887C6.55983 116.759 6.5761 116.631 6.59286 116.499C7.42144 110.058 9.56644 103.992 12.5028 98.1327C12.3972 98.1559 12.3972 98.1559 12.2894 98.1795C12.1961 98.1995 12.1028 98.2195 12.0067 98.2401C11.8685 98.2699 11.8685 98.2699 11.7276 98.3004C9.71596 98.667 7.1976 97.9952 5.49193 97.0424C2.46107 95.1313 0.928311 92.2013 0.184486 88.9204C-0.355154 85.8616 -0.0111963 82.697 1.51911 79.9237C1.57051 79.8294 1.57051 79.8294 1.62295 79.7332C3.12599 77.0085 5.47035 74.487 8.06259 72.6183C8.12639 72.5716 8.1902 72.525 8.25594 72.4769C9.89279 71.2864 12.1627 69.753 14.2555 69.4562C14.2279 69.3983 14.2004 69.3403 14.172 69.2806C13.5037 67.8694 12.8993 66.4524 12.386 64.9857C12.3557 64.9006 12.3255 64.8154 12.2943 64.7277C10.9615 60.9373 10.2224 56.7586 10.049 52.7737C10.0451 52.6881 10.0412 52.6024 10.0372 52.5142C10.0155 51.9452 10.0245 51.3798 10.049 50.811C10.0532 50.7082 10.0574 50.6054 10.0617 50.4994C10.329 44.7208 11.7938 38.9167 14.3149 33.637C14.358 33.5456 14.4011 33.4542 14.4455 33.36C14.6061 33.0381 14.6061 33.0381 14.7932 32.7245C15.3381 31.7693 15.3551 31.1095 15.1561 30.0592C15.1307 29.9076 15.1057 29.756 15.081 29.6042C15.013 29.1937 14.9393 28.7842 14.8643 28.3747C14.8017 28.0285 14.7426 27.6818 14.6835 27.3351C14.1332 24.11 13.5075 20.8952 12.8686 17.6844C12.5558 16.1111 12.2437 14.5391 11.9902 12.9563C11.9719 12.8428 11.9537 12.7294 11.9348 12.6124C11.5824 10.3267 11.3545 7.66361 12.8533 5.67007C16.0311 2.01015 22.6221 0.614777 27.4133 0.0842869C28.6119 -0.0243157 29.8128 -0.0311003 31.0159 -0.0338799Z" fill="#FEBE1C"/>
<path d="M79.3396 71.8548C79.5531 71.8953 79.7668 71.9356 79.9804 71.9758C81.79 72.3266 83.5436 72.8459 85.2988 73.3813C85.4189 73.4177 85.5391 73.4542 85.6628 73.4917C89.5924 74.693 93.4068 76.3287 96.9333 78.3443C97.1799 78.4847 97.4283 78.6216 97.6778 78.7573C98.3775 79.1563 98.7672 79.5089 99.1471 80.1867C99.8194 81.2797 101.104 82.3879 102.38 82.8509C103.003 83.0801 103.003 83.0801 103.172 83.422C103.225 83.6079 103.275 83.7947 103.322 83.9821C103.824 85.7089 105.362 87.039 106.965 87.9009C107.463 88.1557 107.951 88.3204 108.493 88.476C109.162 88.6863 109.446 88.8722 109.781 89.4463C110.467 90.6015 111.419 91.6093 112.676 92.219C113.824 92.7934 114.384 93.5536 115.037 94.5867C115.215 94.8658 115.4 95.1398 115.587 95.4134C118.437 99.5898 120.582 104.083 122.106 108.818C122.135 108.909 122.165 109 122.196 109.093C122.533 110.138 122.799 111.196 123.055 112.26C123.084 112.377 123.112 112.494 123.141 112.615C123.514 114.2 123.795 115.792 123.99 117.405C124 117.487 124.01 117.569 124.02 117.653C124.217 119.287 124.305 120.912 124.326 122.557C124.329 122.718 124.332 122.88 124.335 123.042C124.422 127.747 123.839 132.39 122.573 136.949C122.547 137.043 122.522 137.138 122.495 137.234C120.877 143.042 118.119 148.568 114.511 153.523C114.448 153.609 114.385 153.696 114.32 153.785C113.55 154.838 112.731 155.845 111.865 156.831C111.72 156.996 111.577 157.163 111.434 157.331C110.849 158.011 110.229 158.653 109.591 159.289C109.305 159.575 109.026 159.867 108.749 160.16C107.808 161.139 106.809 162.097 105.731 162.945C105.472 163.151 105.223 163.366 104.973 163.581C104.315 164.136 103.62 164.64 102.919 165.146C102.717 165.293 102.518 165.442 102.319 165.592C96.866 169.69 90.4693 172.547 83.8075 174.458C83.4972 174.547 83.188 174.639 82.8792 174.733C80.3431 175.487 77.6516 175.89 75.0162 176.202C74.9344 176.212 74.8526 176.222 74.7683 176.232C68.0778 177.025 61.3735 176.748 54.8015 175.33C54.7058 175.31 54.61 175.29 54.5114 175.269C48.9424 174.086 43.4279 172.021 38.5597 169.224C38.428 169.149 38.428 169.149 38.2937 169.072C36.2997 167.924 34.3593 166.723 32.5506 165.33C32.2976 165.137 32.0399 164.949 31.7825 164.76C31.279 164.384 30.7885 163.995 30.3 163.602C30.2278 163.544 30.1555 163.486 30.0811 163.427C29.6381 163.068 29.2192 162.694 28.8074 162.304C28.6074 162.118 28.3989 161.945 28.1821 161.776C27.3717 161.122 26.6246 160.408 25.9287 159.649C25.7056 159.41 25.4763 159.177 25.2452 158.945C24.5898 158.285 23.9695 157.607 23.3694 156.903C23.2538 156.771 23.1382 156.639 23.0226 156.506C21.2275 154.429 19.6072 152.154 18.2281 149.816C18.1319 149.654 18.1319 149.654 18.0336 149.49C16.4481 146.827 15.1329 144.096 14.0381 141.223C13.9463 140.983 13.853 140.744 13.7585 140.505C13.4024 139.599 13.1081 138.687 12.8458 137.754C12.8258 137.683 12.8057 137.612 12.785 137.539C12.4444 136.332 12.1512 135.125 11.9184 133.896C11.8985 133.793 11.8787 133.69 11.8582 133.584C11.7177 132.853 11.581 132.121 11.451 131.389C11.4315 131.283 11.4121 131.178 11.392 131.069C11.2084 130.031 11.1107 128.989 11.0274 127.94C11.0159 127.797 11.0159 127.797 11.0042 127.651C10.7381 124.228 10.5829 120.619 11.2689 117.23C11.3408 116.852 11.3964 116.473 11.4516 116.092C11.6321 114.855 11.8693 113.636 12.1521 112.416C12.1753 112.316 12.1985 112.216 12.2225 112.112C12.2954 111.8 12.3695 111.488 12.4442 111.176C12.4663 111.083 12.4884 110.99 12.5112 110.894C13.6142 106.372 15.5872 101.96 17.9944 97.9145C18.0386 97.8401 18.0827 97.7657 18.1282 97.689C19.6525 95.1435 21.4684 92.7263 23.4417 90.4675C23.5852 90.3025 23.7269 90.1362 23.8683 89.9697C24.5062 89.2243 25.1961 88.5312 25.8972 87.838C26.224 87.5147 26.5438 87.1862 26.8603 86.8541C27.5138 86.1732 28.1977 85.5389 28.9407 84.9434C29.2165 84.7172 29.4851 84.4851 29.7534 84.2512C30.4842 83.6148 31.2324 83.011 32.0162 82.4313C32.1577 82.3236 32.2992 82.2158 32.4407 82.1081C34.6011 80.4825 36.9623 79.0137 39.386 77.7515C39.6236 77.6273 39.8594 77.5003 40.0951 77.3731C46.219 74.0966 52.9899 72.1646 59.9428 71.2006C60.0785 71.181 60.2142 71.1614 60.354 71.1412C66.577 70.2659 73.2076 70.6095 79.3396 71.8548Z" fill="#FDFDFD"/>
<path d="M31.0159 -0.0338799C31.1138 -0.0342906 31.2117 -0.0347013 31.3126 -0.0351244C33.0726 -0.0388702 34.818 0.0700396 36.5442 0.409079C36.6874 0.436751 36.6874 0.436751 36.8334 0.464982C40.9448 1.28384 45.7859 2.82252 49.0562 5.40254C49.439 5.7044 49.6793 5.81663 50.1867 5.77783C50.4014 5.74568 50.6155 5.70932 50.8289 5.67007C50.9586 5.64848 51.0882 5.62689 51.2218 5.60464C51.5932 5.54133 51.9638 5.47505 52.3343 5.40716C54.1232 5.08105 55.9144 4.7947 57.7229 4.57971C57.855 4.56325 57.9871 4.54679 58.1233 4.52983C62.6325 3.988 67.4828 3.92603 71.9783 4.57971C72.1461 4.60337 72.3138 4.62701 72.4816 4.65063C74.2625 4.90415 76.0426 5.16353 77.7637 5.6722C78.9501 5.98338 79.4332 5.80189 80.5082 5.25437C81.958 4.54714 83.427 3.93933 84.9485 3.38031C85.0424 3.34525 85.1363 3.31018 85.2331 3.27405C93.4607 0.219302 102.938 -0.479291 111.356 2.28995C111.442 2.3181 111.527 2.34624 111.616 2.37524C112.157 2.55493 112.692 2.74491 113.226 2.94417C113.315 2.97706 113.404 3.00995 113.496 3.04384C114.986 3.66363 116.298 4.83044 116.965 6.21525C118.434 9.96601 116.828 14.3641 115.958 18.1151C115.368 20.663 114.816 23.2124 114.336 25.7804C114.311 25.9096 114.287 26.0389 114.262 26.172C114.027 27.4285 113.801 28.6862 113.602 29.9481C113.587 30.0389 113.572 30.1296 113.557 30.2232C113.382 31.3146 113.382 31.3146 113.678 32.3605C113.725 32.453 113.773 32.5454 113.821 32.6407C113.899 32.7868 113.899 32.7868 113.978 32.9359C114.086 33.1498 114.194 33.3639 114.301 33.5782C114.384 33.7421 114.384 33.7421 114.467 33.9094C119.053 43.2925 119.602 53.6775 115.796 64.6927C115.682 64.9731 115.565 65.2522 115.446 65.5309C115.589 65.5682 115.589 65.5682 115.734 65.6063C116.243 65.7824 116.679 66.0218 117.14 66.2874C117.233 66.3407 117.325 66.3941 117.421 66.4491C121.811 69.0208 125.743 73.2527 127.101 77.9747C127.886 81.2008 127.516 84.7794 125.962 87.7743C125.903 87.888 125.845 88.0017 125.784 88.1189C124.585 90.3189 122.677 92.203 120.12 93.008C119.965 93.008 119.811 93.008 119.652 93.008C120.033 93.6736 120.428 94.3302 120.833 94.9833C125.829 103.063 128.986 112.469 129.024 121.854C129.025 122.057 129.025 122.057 129.026 122.265C129.028 122.701 129.029 123.137 129.029 123.572C129.029 123.684 129.029 123.684 129.03 123.797C129.031 126.091 128.973 128.349 128.65 130.625C128.633 130.754 128.616 130.883 128.598 131.015C127.192 141.706 122.398 152.032 114.978 160.283C114.918 160.35 114.858 160.417 114.796 160.486C113.665 161.74 112.492 162.95 111.239 164.1C110.91 164.405 110.584 164.712 110.26 165.021C109.507 165.736 108.757 166.419 107.913 167.04C107.613 167.265 107.33 167.502 107.047 167.745C106.374 168.316 105.659 168.828 104.929 169.333C104.852 169.387 104.775 169.44 104.696 169.495C102.74 170.843 100.731 172.131 98.6197 173.259C98.5032 173.321 98.5032 173.321 98.3843 173.384C97.7657 173.713 97.142 174.032 96.5164 174.349C96.3664 174.426 96.3664 174.426 96.2134 174.504C93.503 175.882 90.6629 176.992 87.7528 177.947C87.5895 178.001 87.5895 178.001 87.423 178.056C82.6638 179.603 77.6913 180.481 72.6794 180.891C72.5077 180.905 72.5077 180.905 72.3325 180.92C71.4166 180.991 70.5073 181.019 69.5884 181.022C69.3699 181.023 69.3699 181.023 69.147 181.025C68.6789 181.027 68.2108 181.027 67.7426 181.027C67.6229 181.028 67.6229 181.028 67.5008 181.028C65.0416 181.028 62.6174 180.984 60.1767 180.673C60.0177 180.654 59.8587 180.634 59.6997 180.615C53.9417 179.902 48.32 178.495 43.0001 176.312C42.8784 176.262 42.7568 176.212 42.6314 176.16C39.1412 174.718 35.8656 172.977 32.7175 170.969C32.6333 170.915 32.549 170.862 32.4623 170.807C31.285 170.055 30.1653 169.254 29.0687 168.403C28.773 168.175 28.4737 167.95 28.175 167.725C27.673 167.342 27.1882 166.943 26.7094 166.535C26.5494 166.4 26.3887 166.265 26.2239 166.135C25.4478 165.519 24.7323 164.846 24.0124 164.174C23.7874 163.965 23.5616 163.756 23.3356 163.547C22.5993 162.863 21.8957 162.177 21.2536 161.413C21.0186 161.139 20.7697 160.882 20.5142 160.624C19.9032 159.996 19.356 159.327 18.8126 158.648C18.7173 158.529 18.7173 158.529 18.6201 158.408C17.7105 157.276 16.8284 156.132 16.0082 154.941C15.9388 154.84 15.9388 154.84 15.868 154.738C13.2639 150.96 11.1756 146.966 9.58161 142.728C9.53945 142.617 9.4973 142.506 9.45386 142.391C8.13035 138.869 7.23989 135.245 6.68232 131.552C6.66492 131.439 6.66492 131.439 6.64717 131.324C6.26584 128.81 6.14835 126.292 6.15651 123.756C6.15668 123.621 6.15685 123.486 6.15703 123.347C6.16204 121.175 6.25253 119.042 6.54356 116.887C6.55983 116.759 6.5761 116.631 6.59286 116.499C7.42144 110.058 9.56644 103.992 12.5028 98.1327C12.3972 98.1559 12.3972 98.1559 12.2894 98.1795C12.1961 98.1995 12.1028 98.2195 12.0067 98.2401C11.8685 98.2699 11.8685 98.2699 11.7276 98.3004C9.71596 98.667 7.1976 97.9952 5.49193 97.0424C2.46107 95.1313 0.928311 92.2013 0.184486 88.9204C-0.355154 85.8616 -0.0111963 82.697 1.51911 79.9237C1.57051 79.8294 1.57051 79.8294 1.62295 79.7332C3.12599 77.0085 5.47035 74.487 8.06259 72.6183C8.12639 72.5716 8.1902 72.525 8.25594 72.4769C9.89279 71.2864 12.1627 69.753 14.2555 69.4562C14.2279 69.3983 14.2004 69.3403 14.172 69.2806C13.5037 67.8694 12.8993 66.4524 12.386 64.9857C12.3557 64.9006 12.3255 64.8154 12.2943 64.7277C10.9615 60.9373 10.2224 56.7586 10.049 52.7737C10.0451 52.6881 10.0412 52.6024 10.0372 52.5142C10.0155 51.9452 10.0245 51.3798 10.049 50.811C10.0532 50.7082 10.0574 50.6054 10.0617 50.4994C10.329 44.7208 11.7938 38.9167 14.3149 33.637C14.358 33.5456 14.4011 33.4542 14.4455 33.36C14.6061 33.0381 14.6061 33.0381 14.7932 32.7245C15.3381 31.7693 15.3551 31.1095 15.1561 30.0592C15.1307 29.9076 15.1057 29.756 15.081 29.6042C15.013 29.1937 14.9393 28.7842 14.8643 28.3747C14.8017 28.0285 14.7426 27.6818 14.6835 27.3351C14.1332 24.11 13.5075 20.8952 12.8686 17.6844C12.5558 16.1111 12.2437 14.5391 11.9902 12.9563C11.9719 12.8428 11.9537 12.7294 11.9348 12.6124C11.5824 10.3267 11.3545 7.66361 12.8533 5.67007C16.0311 2.01015 22.6221 0.614777 27.4133 0.0842869C28.6119 -0.0243157 29.8128 -0.0311003 31.0159 -0.0338799ZM15.4897 7.03303C14.7388 7.91985 14.7007 8.92119 14.6937 10.0043C14.6913 10.0927 14.6889 10.1811 14.6864 10.2722C14.6798 11.2975 14.8872 12.2958 15.0735 13.3026C15.1049 13.475 15.1363 13.6473 15.1677 13.8197C15.2635 14.3427 15.3618 14.8653 15.4605 15.3879C15.4963 15.5782 15.5321 15.7685 15.5679 15.9587C15.7939 17.157 16.0233 18.3547 16.2565 19.5517C16.2709 19.6254 16.2852 19.6991 16.3 19.775C16.4461 20.5255 16.5945 21.2756 16.7495 22.0246C17.0458 23.4646 17.2916 24.9042 17.4872 26.3587C17.5796 27.0456 17.6873 27.7248 17.8254 28.405C17.9021 28.8027 17.9535 29.2021 18.002 29.6035C18.0715 30.1838 18.0715 30.1838 18.2283 30.7484C18.3529 31.9463 18.1526 32.7443 17.5492 33.815C17.4074 34.0801 17.2687 34.3466 17.1302 34.6132C17.0948 34.6807 17.0594 34.7483 17.0229 34.8179C15.8143 37.1468 14.9655 39.6654 14.3642 42.1874C14.2956 42.4746 14.2204 42.757 14.1396 43.0418C13.8445 44.0865 13.6789 45.1409 13.5325 46.2111C13.5177 46.3193 13.5177 46.3193 13.5025 46.4297C13.3893 47.2643 13.2939 48.0974 13.2334 48.9368C13.2039 49.1755 13.2039 49.1755 13.087 49.2845C13.0737 49.6024 13.0679 49.9176 13.0674 50.2356C13.067 50.333 13.0666 50.4303 13.0662 50.5306C13.0656 50.7383 13.0654 50.9459 13.0654 51.1535C13.0651 51.4651 13.063 51.7766 13.0608 52.0882C13.0567 53.2823 13.1219 54.4285 13.3207 55.6086C13.3433 55.7478 13.3658 55.8869 13.3891 56.0303C13.4587 56.4512 13.5315 56.8716 13.6056 57.2919C13.6317 57.441 13.6579 57.5901 13.6841 57.7392C13.7349 58.0283 13.7861 58.3174 13.8374 58.6064C13.8927 58.9196 13.9469 59.2328 14.0004 59.5463C14.5536 62.7186 15.7422 65.7828 17.1767 68.693C17.2625 68.6946 17.3483 68.6961 17.4367 68.6978C23.7842 68.829 29.0708 71.5018 33.4797 75.7207C33.5651 75.8042 33.5651 75.8042 33.6523 75.8893C34.2078 75.7091 34.6761 75.4295 35.1713 75.1397C40.7127 71.9492 46.6056 69.5863 52.9259 68.1215C53.2241 68.0523 53.5214 67.9809 53.8186 67.908C55.4457 67.5182 57.116 67.2967 58.7745 67.0574C58.8936 67.0401 59.0127 67.0228 59.1354 67.0049C65.2285 66.137 71.7637 66.2398 77.8207 67.2755C77.9679 67.3001 78.1151 67.3248 78.2668 67.3501C80.0844 67.6557 81.8895 67.9901 83.6631 68.4749C83.7616 68.5014 83.8601 68.5279 83.9615 68.5552C86.574 69.2618 89.1638 70.0592 91.6571 71.077C91.9508 71.1959 92.246 71.3089 92.5436 71.4189C92.665 71.4645 92.7864 71.5102 92.9115 71.5573C93.5012 71.5053 93.8171 71.0608 94.2013 70.6692C94.3785 70.4964 94.556 70.3239 94.734 70.1517C94.8195 70.0686 94.9051 69.9854 94.9932 69.8997C95.4644 69.4532 95.9836 69.0735 96.5164 68.693C96.6306 68.6076 96.7447 68.5223 96.8624 68.4344C100.578 65.6729 105.082 63.4921 109.954 63.8954C110.706 63.9947 111.438 64.1575 112.174 64.3315C112.369 64.3687 112.563 64.4052 112.758 64.4406C113.833 61.3881 114.674 58.3825 115.167 55.1951C115.212 54.9544 115.212 54.9544 115.329 54.6273C115.837 51.1522 115.436 47.5813 114.745 44.1598C114.717 44.022 114.69 43.8841 114.662 43.7421C114.407 42.483 114.113 41.2372 113.693 40.0165C113.659 39.915 113.624 39.8135 113.589 39.7089C112.799 37.3834 111.851 35.1433 110.713 32.9474C110.155 31.8451 110.497 30.6052 110.67 29.44C110.683 29.3513 110.696 29.2627 110.709 29.1714C110.958 27.4797 111.268 25.8023 111.612 24.1254C111.712 23.6368 111.808 23.1476 111.904 22.6584C112.21 21.1093 112.529 19.5666 112.912 18.032C113.26 16.6184 113.588 15.2008 113.897 13.7792C113.95 13.5386 114.004 13.2983 114.058 13.0581C114.341 11.8118 114.558 10.5998 114.566 9.32278C114.567 9.22191 114.568 9.12104 114.569 9.0171C114.552 8.05559 114.305 7.1426 113.576 6.43333C112.723 5.73233 111.714 5.36238 110.655 5.01586C110.574 4.98903 110.493 4.9622 110.41 4.93456C107.033 3.83062 103.549 3.35631 99.9853 3.35306C99.8577 3.35289 99.8577 3.35289 99.7276 3.35272C97.3969 3.35473 95.0965 3.56954 92.828 4.07984C92.5217 4.14847 92.2145 4.21345 91.9073 4.27858C87.7793 5.1753 83.9439 6.67304 80.1921 8.49168C79.4509 8.82999 78.8682 8.96769 78.0658 8.73288C77.86 8.66445 77.6542 8.59602 77.4484 8.5274C75.3966 7.86671 73.1952 7.53466 71.0436 7.30562C70.9117 7.29086 70.7798 7.2761 70.6439 7.26089C67.6171 6.92926 64.6004 6.9025 61.557 7.0194C61.421 7.0244 61.421 7.0244 61.2823 7.02951C60.8461 7.05145 60.4334 7.1012 60.0065 7.18764C59.2102 7.34527 58.4017 7.41148 57.5931 7.48969C55.6257 7.68127 53.708 7.91297 51.7856 8.35509C49.4387 8.89104 49.4387 8.89104 48.6855 8.54207C48.3042 8.32169 47.9333 8.08649 47.5634 7.84989C44.5734 5.93959 41.4393 4.58308 37.9756 3.59839C37.8416 3.56004 37.8416 3.56004 37.7048 3.52092C37.1774 3.37393 36.6463 3.25896 36.1061 3.16224C35.9985 3.14272 35.8909 3.1232 35.7801 3.10309C30.0996 2.1103 19.7703 2.65685 15.4897 7.03303ZM65.1636 70.7722C61.6683 70.8721 58.2054 71.3258 54.8017 72.0731C54.6838 72.0986 54.566 72.1241 54.4445 72.1503C51.0014 72.9059 47.6154 73.9638 44.4023 75.3442C44.2965 75.3895 44.2965 75.3895 44.1886 75.4357C40.2714 77.1184 36.5599 79.1494 33.1557 81.6285C32.9448 81.7819 32.7327 81.9336 32.5203 82.0852C31.7649 82.6279 31.0425 83.1892 30.3449 83.7962C30.093 84.0129 29.8383 84.2243 29.5799 84.4342C27.5415 86.0933 25.6827 87.9061 23.9539 89.846C23.8625 89.9477 23.8625 89.9477 23.7692 90.0515C22.7913 91.1418 21.8899 92.269 21.0327 93.4442C20.9725 93.5266 20.9124 93.6091 20.8504 93.6941C15.7962 100.649 12.1955 108.709 11.2929 117.123C11.2285 117.718 11.2285 117.718 11.1598 117.974C9.63267 123.677 10.9652 131.449 12.6523 136.999C12.7374 137.28 12.8185 137.561 12.899 137.842C14.8222 144.459 18.2062 150.603 22.6686 156.031C22.7247 156.099 22.7807 156.168 22.8385 156.238C23.4455 156.976 24.0641 157.694 24.7408 158.378C24.9613 158.603 25.1766 158.83 25.3908 159.06C25.8167 159.516 26.2559 159.959 26.6998 160.399C26.7729 160.472 26.8459 160.545 26.9212 160.62C27.6071 161.302 28.3018 161.962 29.0614 162.572C29.3213 162.785 29.5755 163.003 29.8289 163.222C30.5352 163.833 31.261 164.414 32.0164 164.972C32.0926 165.029 32.1689 165.085 32.2474 165.144C33.4611 166.044 34.6935 166.903 35.9892 167.698C36.0844 167.756 36.1795 167.815 36.2775 167.875C40.7977 170.636 45.6548 172.873 50.8289 174.349C50.9255 174.377 51.0221 174.404 51.1216 174.433C51.8382 174.637 52.5585 174.824 53.2827 175.003C53.4405 175.043 53.4405 175.043 53.6016 175.083C57.1441 175.949 60.9541 176.551 64.6169 176.639C64.7106 176.641 64.8043 176.643 64.9009 176.646C68.3009 176.724 71.6433 176.614 75.0164 176.203C75.146 176.187 75.146 176.187 75.2783 176.171C78.7114 175.747 82.0107 175.034 85.299 174.022C85.4183 173.986 85.5376 173.949 85.6604 173.912C90.3188 172.488 94.9524 170.473 98.9784 167.845C99.2387 167.675 99.5008 167.508 99.763 167.342C100.957 166.578 102.1 165.776 103.21 164.91C103.498 164.686 103.79 164.468 104.082 164.25C104.661 163.807 105.212 163.34 105.76 162.864C106.057 162.609 106.357 162.359 106.66 162.11C107.711 161.229 108.741 160.295 109.652 159.287C109.872 159.045 110.103 158.813 110.334 158.58C110.928 157.965 111.469 157.316 112.012 156.661C112.166 156.477 112.322 156.295 112.48 156.114C117.328 150.526 120.857 143.597 122.69 136.622C122.715 136.529 122.74 136.436 122.765 136.34C123.92 131.888 124.419 127.368 124.331 122.794C124.326 122.572 124.324 122.349 124.321 122.127C124.275 118.767 123.8 115.479 123.041 112.198C123.006 112.05 123.006 112.05 122.971 111.898C122.181 108.529 120.957 105.19 119.419 102.058C119.335 101.887 119.335 101.887 119.249 101.712C118.12 99.4321 116.872 97.2216 115.393 95.1216C115.203 94.848 115.017 94.5717 114.831 94.2952C114 93.0539 114 93.0539 112.714 92.2614C111.408 91.7249 110.37 90.4869 109.698 89.3485C109.401 88.8653 109.118 88.6936 108.552 88.5375C106.327 87.7552 104.572 86.5266 103.503 84.5104C103.41 84.2851 103.41 84.2851 103.358 84.0155C103.26 83.5291 103.183 83.2759 102.737 82.9827C102.471 82.8542 102.203 82.7302 101.933 82.6104C100.646 82.0232 99.6523 81.0218 98.9396 79.8815C98.3726 79.0861 97.5402 78.6827 96.6756 78.2185C96.4854 78.1162 96.2956 78.0132 96.1062 77.9097C92.0809 75.7097 87.873 74.1138 83.4294 72.8363C83.2971 72.7974 83.1647 72.7585 83.0283 72.7183C81.8121 72.3624 80.5858 72.102 79.3398 71.855C79.2294 71.8324 79.1191 71.8097 79.0054 71.7864C74.453 70.863 69.8067 70.6435 65.1636 70.7722Z" fill="#222222"/>
<path d="M79.3396 71.8548C79.5531 71.8953 79.7668 71.9356 79.9804 71.9758C81.79 72.3266 83.5436 72.8459 85.2988 73.3813C85.4189 73.4177 85.539 73.4542 85.6628 73.4917C89.5924 74.693 93.4068 76.3287 96.9333 78.3443C97.1799 78.4847 97.4283 78.6216 97.6778 78.7573C98.3775 79.1563 98.7671 79.5089 99.1471 80.1867C99.8194 81.2797 101.104 82.3879 102.38 82.8509C103.003 83.0801 103.003 83.0801 103.171 83.422C103.225 83.6079 103.275 83.7947 103.322 83.9821C103.824 85.7089 105.362 87.039 106.965 87.9009C107.463 88.1557 107.951 88.3204 108.493 88.476C109.162 88.6863 109.446 88.8722 109.781 89.4463C110.468 90.6019 111.419 91.6088 112.676 92.2192C113.831 92.796 114.396 93.5746 115.053 94.6123C115.299 94.9976 115.563 95.3717 115.825 95.7474C115.972 95.9606 116.118 96.1743 116.263 96.388C115.913 96.388 115.913 96.388 115.745 96.2555C115.685 96.1935 115.624 96.1315 115.562 96.0677C115.077 95.5959 114.546 95.1922 113.998 94.7846C113.796 94.6334 113.596 94.4809 113.395 94.3282C112.43 93.5968 111.446 92.9015 110.421 92.2446C110.323 92.1816 110.226 92.1187 110.125 92.0538C108.329 90.9012 106.487 89.8483 104.579 88.8645C104.467 88.8066 104.355 88.7487 104.24 88.6891C100.763 86.9042 97.047 85.5499 93.2445 84.503C93.2819 84.5813 93.3194 84.6596 93.358 84.7403C93.5861 85.3249 93.5954 85.9384 93.3721 86.5272C93.2207 86.813 93.055 87.085 92.8793 87.3584C92.8164 87.461 92.7535 87.5635 92.6887 87.6692C92.4871 87.9964 92.2817 88.3214 92.076 88.6464C91.9439 88.8588 91.8119 89.0713 91.6802 89.284C91.4099 89.7194 91.1379 90.1539 90.8646 90.5877C90.4296 91.2788 89.9998 91.9726 89.571 92.6671C89.4983 92.7848 89.4256 92.9026 89.3507 93.0239C89.2032 93.2627 89.0558 93.5015 88.9084 93.7403C88.5429 94.3322 88.1769 94.9239 87.811 95.5157C87.665 95.7519 87.5189 95.9882 87.3728 96.2244C86.4965 97.6419 85.6201 99.0593 84.7438 100.477C84.6715 100.594 84.5992 100.711 84.5247 100.831C84.3787 101.067 84.2327 101.303 84.0868 101.539C83.7199 102.133 83.3533 102.726 82.9869 103.319C82.2833 104.459 81.5776 105.597 80.8659 106.733C80.2729 107.679 79.6875 108.629 79.1059 109.581C78.4585 110.641 77.8049 111.698 77.1448 112.751C76.4256 113.898 75.7145 115.05 75.0035 116.202C74.5651 116.912 74.1262 117.621 73.6873 118.331C73.3205 118.924 72.9538 119.517 72.5875 120.111C72.2242 120.699 71.8604 121.287 71.4963 121.875C71.3469 122.117 71.1978 122.358 71.0487 122.599C70.8259 122.96 70.6024 123.321 70.3788 123.681C70.3115 123.79 70.2441 123.9 70.1747 124.012C69.2204 125.546 69.2204 125.546 68.239 125.828C67.3373 125.962 66.8202 125.855 66.0775 125.38C65.5493 125.007 65.0909 124.571 64.6247 124.133C64.5115 124.028 64.3982 123.923 64.2848 123.817C63.9758 123.531 63.6679 123.243 63.3601 122.955C63.0272 122.644 62.6932 122.333 62.3594 122.023C61.7065 121.416 61.0545 120.807 60.4029 120.199C59.8732 119.704 59.3432 119.21 58.8129 118.715C58.7373 118.645 58.6618 118.574 58.5839 118.502C58.4304 118.359 58.2768 118.216 58.1233 118.073C56.6848 116.732 55.2475 115.39 53.8105 114.048C52.4966 112.821 51.1813 111.595 49.8654 110.369C48.513 109.11 47.1616 107.85 45.811 106.589C45.0533 105.881 44.2951 105.174 43.5361 104.468C42.8902 103.867 42.2451 103.265 41.601 102.662C41.2726 102.355 40.9438 102.048 40.6139 101.741C40.3117 101.461 40.0105 101.179 39.7102 100.897C39.5506 100.747 39.3898 100.599 39.229 100.45C38.5157 99.7769 37.8651 99.1111 37.7855 98.1325C37.8274 97.4536 38.1129 96.8883 38.6514 96.4276C39.1381 96.091 39.5528 95.934 40.1517 95.9109C40.2913 95.9029 40.2913 95.9029 40.4338 95.8947C41.4675 96.0653 42.202 96.7812 42.91 97.4525C43.0134 97.5487 43.1167 97.6449 43.2231 97.744C43.5078 98.0091 43.791 98.2755 44.0739 98.5422C44.3801 98.8302 44.6877 99.117 44.9951 99.404C45.5268 99.9007 46.0577 100.398 46.588 100.896C47.3549 101.616 48.1232 102.335 48.8918 103.054C50.1392 104.22 51.3856 105.386 52.6313 106.554C52.7058 106.624 52.7803 106.694 52.857 106.765C52.9316 106.835 53.0061 106.905 53.083 106.977C54.1419 107.97 55.201 108.962 56.2604 109.954C56.3724 110.059 56.3724 110.059 56.4866 110.166C57.7292 111.329 58.9724 112.492 60.2157 113.655C60.9827 114.372 61.7492 115.09 62.5151 115.809C63.039 116.3 63.5634 116.791 64.088 117.282C64.391 117.565 64.6938 117.849 64.9961 118.133C65.3231 118.441 65.651 118.747 65.9789 119.053C66.0753 119.144 66.1716 119.235 66.2709 119.329C66.4019 119.451 66.4019 119.451 66.5355 119.575C66.6112 119.646 66.6868 119.717 66.7648 119.79C66.9421 119.963 66.9421 119.963 67.1874 119.94C67.2248 119.877 67.2623 119.815 67.3009 119.751C68.0941 118.434 68.8965 117.122 69.7145 115.817C70.44 114.661 71.1571 113.499 71.874 112.338C72.2395 111.746 72.6055 111.154 72.9714 110.563C73.1174 110.326 73.2635 110.09 73.4095 109.854C77.2071 103.712 81.0046 97.5692 84.8022 91.4268C84.8745 91.3098 84.9469 91.1928 85.0214 91.0723C85.1671 90.8366 85.3129 90.6008 85.4587 90.3651C85.8288 89.7667 86.1985 89.168 86.5672 88.5689C86.9309 87.9782 87.296 87.3883 87.6623 86.7991C87.799 86.5791 87.9352 86.359 88.0711 86.1386C88.2581 85.8357 88.4469 85.5338 88.6363 85.2322C88.7176 85.0994 88.7176 85.0994 88.8007 84.9639C89.1292 84.4455 89.4518 84.0974 89.9727 83.7398C89.5203 83.5544 89.0849 83.4538 88.5998 83.3688C88.5242 83.3554 88.4487 83.3421 88.3709 83.3284C88.126 83.2854 87.8809 83.2433 87.6358 83.2014C87.5517 83.1869 87.4677 83.1724 87.3812 83.1575C83.9434 82.5655 80.5652 82.2796 77.0672 82.2877C76.8171 82.2882 76.5671 82.2883 76.3171 82.2883C73.6905 82.2893 71.0849 82.3762 68.4727 82.6494C68.4768 82.7849 68.4808 82.9204 68.485 83.06C68.4844 83.6027 68.3437 83.8412 68.0053 84.2849C67.4892 84.7313 67.0867 84.8729 66.3758 84.8595C65.9616 84.8088 65.7435 84.6502 65.4347 84.394C64.8504 83.6661 64.8504 83.6661 64.8504 83.3036C57.489 84.6418 50.1021 87.3229 43.9215 91.3393C43.6706 91.5009 43.4173 91.659 43.1637 91.817C42.0369 92.5221 40.9586 93.261 39.912 94.0666C39.659 94.2601 39.4013 94.448 39.1439 94.6366C36.9924 96.2473 34.849 98.0077 33.0555 99.9674C32.8372 100.201 32.6118 100.427 32.3847 100.654C31.6847 101.353 31.0484 102.088 30.4236 102.846C30.2664 103.036 30.1068 103.223 29.9462 103.41C27.8283 105.88 26.0483 108.555 24.4211 111.326C24.3687 111.414 24.3163 111.503 24.2624 111.594C22.3147 114.888 20.9358 118.426 19.7472 122.011C19.8909 122.009 20.0347 122.006 20.1828 122.003C20.7194 121.993 21.2559 121.987 21.7926 121.981C22.0242 121.979 22.2559 121.975 22.4875 121.97C22.8217 121.964 23.1557 121.961 23.4899 121.958C23.5925 121.955 23.695 121.953 23.8006 121.95C24.5392 121.949 25.0146 122.123 25.5896 122.557C25.9945 122.97 25.9939 123.389 25.9725 123.927C25.9263 124.305 25.8327 124.539 25.5896 124.846C25.3249 125.024 25.0669 125.147 24.7716 125.283C24.6945 125.319 24.6174 125.354 24.5379 125.392C24.3542 125.404 24.17 125.411 23.9858 125.414C23.8712 125.416 23.7566 125.418 23.6385 125.421C23.4525 125.423 23.4525 125.423 23.2626 125.426C23.1359 125.428 23.0091 125.431 22.8785 125.433C22.4726 125.44 22.0666 125.446 21.6605 125.453C21.3858 125.458 21.111 125.462 20.8362 125.467C20.1616 125.479 19.487 125.49 18.8124 125.501C18.7959 125.587 18.7794 125.673 18.7625 125.762C18.6866 126.159 18.6107 126.555 18.5349 126.952C18.509 127.088 18.4831 127.223 18.4564 127.363C18.4308 127.497 18.4052 127.631 18.3788 127.769C18.3532 127.903 18.3276 128.037 18.3012 128.176C18.2573 128.403 18.2125 128.629 18.1656 128.856C16.7407 135.77 17.1488 143.612 19.1766 150.405C19.2645 150.739 19.3041 151.001 19.2798 151.342C18.8023 150.838 18.4856 150.269 18.1478 149.679C18.0858 149.572 18.0239 149.465 17.96 149.354C17.8346 149.136 17.7094 148.919 17.5845 148.701C17.4348 148.441 17.2831 148.182 17.13 147.924C15.8716 145.786 14.9182 143.52 14.04 141.227C13.9473 140.985 13.8532 140.745 13.7579 140.504C13.4021 139.598 13.108 138.687 12.8458 137.754C12.8258 137.683 12.8057 137.612 12.785 137.539C12.4444 136.332 12.1512 135.125 11.9184 133.896C11.8985 133.793 11.8787 133.69 11.8582 133.584C11.7177 132.853 11.581 132.121 11.451 131.389C11.4315 131.283 11.4121 131.178 11.392 131.069C11.2084 130.031 11.1107 128.989 11.0274 127.94C11.0159 127.797 11.0159 127.797 11.0042 127.651C10.7381 124.228 10.5829 120.619 11.2689 117.23C11.3408 116.852 11.3964 116.473 11.4516 116.092C11.6321 114.855 11.8693 113.636 12.1521 112.416C12.1753 112.316 12.1985 112.216 12.2225 112.112C12.2954 111.8 12.3695 111.488 12.4442 111.176C12.4663 111.083 12.4884 110.99 12.5112 110.894C13.6142 106.372 15.5872 101.96 17.9944 97.9145C18.0386 97.8401 18.0827 97.7657 18.1282 97.689C19.6525 95.1435 21.4684 92.7263 23.4417 90.4675C23.5852 90.3025 23.7269 90.1362 23.8683 89.9697C24.5062 89.2243 25.1961 88.5312 25.8972 87.838C26.224 87.5146 26.5438 87.1862 26.8603 86.8541C27.5138 86.1732 28.1977 85.5389 28.9407 84.9434C29.2165 84.7172 29.4851 84.4851 29.7534 84.2512C30.4842 83.6148 31.2324 83.011 32.0162 82.4313C32.1577 82.3236 32.2992 82.2158 32.4407 82.1081C34.6011 80.4825 36.9623 79.0137 39.386 77.7515C39.6236 77.6273 39.8594 77.5003 40.0951 77.3731C46.219 74.0966 52.9899 72.1646 59.9428 71.2006C60.0785 71.181 60.2142 71.1614 60.354 71.1412C66.577 70.2659 73.2076 70.6095 79.3396 71.8548Z" fill="#DCDCDC"/>
<path d="M63.6297 43.4792C63.8846 43.4782 64.1393 43.4748 64.3941 43.4714C65.5607 43.4633 66.6322 43.5957 67.7717 43.8325C67.8931 43.8568 68.0145 43.8811 68.1397 43.9061C70.6825 44.4309 73.2238 45.4557 75.2499 46.9946C75.3599 47.0754 75.4699 47.1562 75.5831 47.2395C77.5918 48.7375 79.2071 50.6136 79.807 52.9916C79.8425 53.1056 79.8425 53.1056 79.8787 53.222C80.5416 55.524 79.6515 57.9862 78.4261 59.9768C78.091 60.4939 77.6937 60.9333 77.2455 61.3673C76.9969 61.6025 76.9969 61.6025 76.784 61.8725C74.8732 64.009 71.6406 65.0849 68.8233 65.6398C68.7382 65.6578 68.6531 65.6758 68.5655 65.6943C67.873 65.8346 67.2132 65.8953 66.5055 65.9021C66.3993 65.9037 66.293 65.9052 66.1836 65.9067C65.8414 65.9105 65.4994 65.9119 65.1572 65.9124C65.0402 65.9126 64.9231 65.9129 64.8025 65.9131C62.8247 65.9113 61.0244 65.7518 59.1249 65.2036C58.9677 65.159 58.9677 65.159 58.8072 65.1135C55.3949 64.115 52.1888 62.1251 50.4732 59.13C49.6421 57.5799 49.3389 56.0975 49.3608 54.3818C49.3613 54.2983 49.3618 54.2149 49.3624 54.1289C49.3732 52.8185 49.4746 51.6006 50.0108 50.3747C50.0402 50.306 50.0696 50.2372 50.0999 50.1664C50.5577 49.1351 51.2315 48.2761 51.9972 47.4307C52.0629 47.3582 52.1286 47.2857 52.1962 47.211C55.0341 44.3488 59.6518 43.4892 63.6297 43.4792Z" fill="#FEDA7E"/>
<path d="M21.4999 71.4187C21.6343 71.4539 21.6343 71.4539 21.7714 71.4898C25.475 72.4804 28.8968 74.7168 31.5489 77.3067C31.3931 77.6291 31.222 77.8577 30.955 78.1078C30.8494 78.2068 30.8494 78.2068 30.7417 78.3078C30.6682 78.3755 30.5948 78.4432 30.5191 78.5129C30.4471 78.581 30.375 78.6491 30.3007 78.7192C29.9236 79.0696 29.572 79.365 29.0951 79.5964C29.0371 79.4844 28.9791 79.3724 28.9193 79.257C28.1929 77.5776 28.1929 77.5776 26.8749 76.4344C26.3501 76.3877 26.0695 76.3753 25.5969 76.5911C25.2541 76.9886 25.2074 77.3467 25.2391 77.8519C25.3759 78.2085 25.577 78.5143 25.7941 78.8332C26.6417 80.1201 26.952 81.2475 26.7581 82.7585C26.4449 83.8555 25.4453 84.8218 24.412 85.3822C23.5315 85.783 22.6009 85.8755 21.646 85.6147C20.3475 85.0516 19.363 84.062 18.4248 83.0818C18.3587 83.0133 18.2926 82.9449 18.2246 82.8743C18.166 82.8126 18.1075 82.7509 18.0472 82.6874C17.7682 82.4455 17.5047 82.4294 17.1328 82.3973C16.7102 82.4068 16.7102 82.4068 16.3733 82.5881C16.0728 82.9261 15.9959 83.1507 15.9716 83.5852C16.0429 84.1003 16.361 84.4405 16.7092 84.8302C16.7916 84.9246 16.874 85.0191 16.9589 85.1164C18.2385 86.5059 19.7475 87.5198 21.6168 88.1013C21.3135 89.3276 20.1806 90.1222 19.1142 90.7846C18.0295 91.3432 16.6652 91.3298 15.4818 91.0614C14.5045 90.7119 13.685 90.1174 12.8925 89.4906C12.1575 88.8905 12.1575 88.8905 11.2173 88.7555C10.7482 88.9207 10.5626 89.0178 10.2826 89.4097C10.2369 89.6398 10.2369 89.6398 10.2387 89.8867C10.2354 89.9685 10.2321 90.0503 10.2287 90.1346C10.4116 91.0052 11.6361 91.6545 12.3598 92.1313C13.2547 92.68 14.1972 93.0771 15.1902 93.444C14.2614 94.7079 13.0942 95.5416 11.451 95.8428C9.26552 95.9979 7.49406 95.3901 5.84234 94.0914C3.89718 92.4118 2.85683 89.6919 2.6638 87.2579C2.65213 86.9548 2.64897 86.6531 2.65093 86.3499C2.65159 86.2413 2.65225 86.1327 2.65293 86.0208C2.72587 81.808 5.27571 78.489 8.41984 75.6439C8.93708 75.1865 9.48325 74.7668 10.0489 74.3627C10.1353 74.3007 10.2218 74.2387 10.3109 74.1749C13.5247 71.9801 17.5066 70.3502 21.4999 71.4187Z" fill="#FEBE1C"/>
<path d="M114.043 67.6024C114.125 67.6386 114.207 67.6747 114.291 67.712C116.204 68.5718 117.843 69.7569 119.351 71.1411C119.51 71.2863 119.671 71.4288 119.833 71.5707C120.599 72.2544 121.24 73.0259 121.872 73.8175C121.92 73.8771 121.968 73.9368 122.017 73.9982C124.165 76.7183 125.173 79.6947 124.667 83.068C124.238 85.6328 123.162 88.1433 120.901 89.7708C119.308 90.7987 117.472 91.1351 115.562 90.9362C114.228 90.6259 113.086 89.7929 112.291 88.7554C112.291 88.6835 112.291 88.6115 112.291 88.5374C112.381 88.5094 112.472 88.4814 112.566 88.4526C114.159 87.9256 116.121 86.9372 117.081 85.5934C117.114 85.3303 117.114 85.3303 117.103 85.0482C117.103 84.9538 117.102 84.8593 117.101 84.762C117.092 84.4867 117.092 84.4867 116.965 84.1759C116.492 83.9221 115.979 83.8764 115.446 83.9578C115.167 84.1343 114.965 84.2865 114.73 84.503C113.411 85.628 111.922 86.4349 110.095 86.3873C108.599 86.2649 107.358 85.4531 106.381 84.417C106.047 84.0107 105.938 83.7105 105.864 83.1946C105.957 83.1654 106.051 83.1361 106.147 83.106C108.075 82.4642 109.612 81.297 110.889 79.8145C110.983 79.711 111.077 79.6076 111.173 79.501C111.432 79.019 111.477 78.5977 111.356 78.0699C111.157 77.7488 111.032 77.7037 110.655 77.5247C110.265 77.4645 109.971 77.4996 109.603 77.6337C109.162 77.9432 108.826 78.3304 108.474 78.7233C107.522 79.7734 106.424 80.6989 104.922 80.8912C103.879 80.9498 103.169 80.6318 102.359 80.0325C101.332 79.1811 100.696 78.3379 100.583 77.0404C100.53 75.8556 101.034 74.7902 101.7 73.7983C102.074 73.2286 102.286 72.7465 102.125 72.0729C101.906 71.8001 101.747 71.6783 101.424 71.5277C100.828 71.4858 100.5 71.5194 100.022 71.8548C99.827 72.1059 99.6596 72.3439 99.4959 72.6113C99.4506 72.6832 99.4054 72.7552 99.3588 72.8294C98.9688 73.4631 98.6581 74.1132 98.3858 74.7988C97.8512 74.3831 97.3549 73.9496 96.8668 73.487C96.5316 73.179 96.1765 72.899 95.8152 72.6181C98.339 69.6901 102.899 66.7988 106.965 66.3366C109.57 66.1018 111.695 66.559 114.043 67.6024Z" fill="#FEBE1C"/>
<path d="M92.2367 83.6989C92.8184 84.0125 93.2179 84.4696 93.4782 85.0482C93.6285 85.9589 93.3746 86.5877 92.8794 87.3584C92.8165 87.461 92.7536 87.5635 92.6887 87.6692C92.4872 87.9964 92.2818 88.3214 92.0761 88.6464C91.9439 88.8588 91.812 89.0713 91.6803 89.284C91.41 89.7194 91.138 90.1539 90.8647 90.5877C90.4297 91.2788 89.9999 91.9726 89.5711 92.6671C89.4984 92.7848 89.4257 92.9026 89.3508 93.0239C89.2033 93.2627 89.0559 93.5015 88.9085 93.7403C88.543 94.3322 88.177 94.9239 87.8111 95.5157C87.6651 95.7519 87.519 95.9881 87.3729 96.2244C86.0584 98.3506 86.0584 98.3506 84.7439 100.477C84.6716 100.594 84.5992 100.711 84.5247 100.831C84.3788 101.067 84.2328 101.303 84.0869 101.539C83.72 102.133 83.3534 102.726 82.987 103.319C82.2833 104.459 81.5777 105.597 80.866 106.733C80.2729 107.679 79.6876 108.629 79.106 109.581C78.4586 110.641 77.805 111.698 77.1448 112.751C76.4257 113.898 75.7146 115.05 75.0036 116.202C74.5652 116.912 74.1263 117.621 73.6874 118.331C73.3206 118.924 72.9539 119.517 72.5876 120.111C72.2243 120.699 71.8605 121.287 71.4964 121.875C71.347 122.117 71.1978 122.358 71.0488 122.599C70.826 122.96 70.6025 123.321 70.3789 123.681C70.3115 123.79 70.2442 123.9 70.1748 124.012C69.2205 125.546 69.2205 125.546 68.2391 125.828C67.3374 125.962 66.8203 125.855 66.0776 125.38C65.5494 125.007 65.091 124.571 64.6248 124.133C64.5116 124.028 64.3983 123.923 64.2849 123.817C63.9759 123.531 63.668 123.243 63.3602 122.955C63.0273 122.644 62.6933 122.333 62.3595 122.023C61.7066 121.416 61.0546 120.807 60.403 120.199C59.8733 119.704 59.3433 119.21 58.813 118.715C58.7374 118.645 58.6619 118.574 58.584 118.502C58.4305 118.359 58.2769 118.216 58.1234 118.073C56.6849 116.732 55.2476 115.39 53.8106 114.048C52.4967 112.821 51.1814 111.595 49.8655 110.369C48.5131 109.11 47.1617 107.85 45.8111 106.589C45.0533 105.881 44.2952 105.174 43.5362 104.468C42.8903 103.867 42.2452 103.265 41.6011 102.662C41.2727 102.355 40.9439 102.048 40.614 101.741C40.3118 101.461 40.0106 101.179 39.7103 100.897C39.5507 100.747 39.3899 100.599 39.2291 100.45C38.5158 99.7769 37.8652 99.1111 37.7856 98.1325C37.8275 97.4536 38.113 96.8883 38.6515 96.4276C39.1382 96.091 39.5529 95.934 40.1518 95.9109C40.2449 95.9056 40.338 95.9002 40.4339 95.8947C41.4676 96.0652 42.2021 96.7812 42.9101 97.4525C43.0135 97.5487 43.1168 97.6449 43.2232 97.744C43.5079 98.0091 43.7911 98.2755 44.074 98.5422C44.3802 98.8302 44.6878 99.117 44.9952 99.404C45.5269 99.9007 46.0578 100.398 46.5881 100.896C47.355 101.616 48.1232 102.335 48.8919 103.054C50.1393 104.22 51.3857 105.386 52.6314 106.554C52.7059 106.624 52.7803 106.694 52.8571 106.765C52.9316 106.835 53.0062 106.905 53.0831 106.977C54.142 107.97 55.2011 108.962 56.2605 109.954C56.3352 110.024 56.4098 110.094 56.4867 110.166C57.7293 111.329 58.9725 112.492 60.2158 113.655C60.9828 114.372 61.7493 115.09 62.5152 115.809C63.0391 116.3 63.5635 116.791 64.0881 117.282C64.3911 117.565 64.6939 117.849 64.9962 118.133C65.3232 118.441 65.6511 118.747 65.979 119.053C66.0754 119.144 66.1717 119.235 66.271 119.329C66.402 119.451 66.402 119.451 66.5356 119.575C66.6113 119.646 66.6869 119.717 66.7649 119.79C66.9422 119.963 66.9422 119.963 67.1875 119.94C67.2249 119.877 67.2624 119.815 67.301 119.751C68.0942 118.434 68.8966 117.122 69.7146 115.817C70.4401 114.661 71.1572 113.499 71.8741 112.338C72.2396 111.746 72.6055 111.154 72.9714 110.563C73.1175 110.326 73.2636 110.09 73.4096 109.854C77.2072 103.712 81.0047 97.5692 84.8023 91.4268C84.8746 91.3098 84.9469 91.1928 85.0215 91.0723C85.1672 90.8366 85.313 90.6008 85.4588 90.3651C85.8289 89.7667 86.1986 89.168 86.5673 88.5689C86.931 87.9782 87.2961 87.3883 87.6624 86.7991C87.7991 86.5791 87.9353 86.359 88.0712 86.1386C88.2582 85.8357 88.447 85.5338 88.6364 85.2322C88.6906 85.1437 88.7449 85.0551 88.8008 84.9639C89.5555 83.7729 90.7579 83.0692 92.2367 83.6989Z" fill="#232323"/>
<path d="M48.3423 31.9828C48.7685 32.3119 49.1573 32.6687 49.5435 33.038C49.6856 33.1691 49.6856 33.1691 49.8306 33.3029C51.5936 35.0126 52.54 37.3707 52.5085 39.7233C52.5072 39.8527 52.5059 39.9821 52.5046 40.1155C52.4533 42.7567 51.4161 44.9171 49.4846 46.8413C47.2515 48.85 44.5626 49.6593 41.5079 49.6272C39.0055 49.576 36.8096 48.6373 34.9375 47.1036C34.8486 47.0311 34.7597 46.9586 34.6682 46.8839C32.8599 45.3074 31.6184 42.7891 31.521 40.4874C31.4565 37.6541 32.3967 35.1545 34.4701 33.038C38.084 29.57 44.1815 28.9973 48.3423 31.9828Z" fill="#040B2F"/>
<path d="M85.3793 30.278C85.5014 30.2774 85.6235 30.2768 85.7494 30.2761C88.551 30.3005 91.0215 31.3352 93.0109 33.147C95.2944 35.3483 96.0054 37.8947 95.964 40.8928C95.9363 41.7084 95.7736 42.4111 95.4647 43.1783C95.4233 43.2836 95.4233 43.2836 95.3811 43.3909C94.3704 45.9103 92.4598 47.8107 89.8534 48.953C87.2982 50.0208 84.3728 50.124 81.7392 49.2277C80.6373 48.7971 79.664 48.262 78.7555 47.5398C78.6693 47.4751 78.5831 47.4105 78.4944 47.3438C76.805 46.0283 75.7858 44.1625 75.25 42.197C75.2238 42.1134 75.1976 42.0297 75.1706 41.9436C74.5254 39.5807 75.2159 36.9846 76.5061 34.9325C76.956 34.2715 77.4715 33.7079 78.0544 33.147C78.116 33.0815 78.1776 33.016 78.2411 32.9485C80.0669 31.0748 82.7448 30.2906 85.3793 30.278Z" fill="#040B2F"/>
<path d="M109.603 8.94096C109.822 8.9846 109.822 8.9846 110.046 9.02912C110.21 9.06307 110.21 9.06307 110.377 9.0977C110.49 9.12005 110.602 9.14239 110.718 9.16542C111.068 9.29054 111.175 9.39979 111.356 9.70421C111.804 11.4398 111.444 13.4247 111.122 15.156C111.105 15.2498 111.088 15.3435 111.071 15.4401C110.752 17.1637 110.294 18.8614 109.851 20.5601C109.822 20.6721 109.793 20.7841 109.763 20.8995C109.382 22.3671 108.962 23.8197 108.499 25.267C108.266 25.9995 108.055 26.7371 107.85 27.4771C107.485 27.1754 107.244 26.7997 106.981 26.4208C105.575 24.4263 103.97 22.6419 102.169 20.9486C102.068 20.8539 101.968 20.7593 101.865 20.6618C101.17 20.0163 100.437 19.4346 99.6711 18.8632C99.5511 18.7691 99.4315 18.6744 99.3128 18.5787C97.0435 16.7627 94.4942 15.2983 91.8678 13.9781C91.6068 13.8467 91.3469 13.7134 91.0869 13.5801C89.8871 12.9719 88.6612 12.4441 87.4034 11.948C87.2834 11.9002 87.1634 11.8524 87.0397 11.8032C86.932 11.761 86.8244 11.7188 86.7135 11.6754C86.4673 11.5578 86.4673 11.5578 86.3505 11.3398C93.6853 8.60806 101.787 7.18303 109.603 8.94096Z" fill="#FFDA7E"/>
<path d="M27.9778 8.15048C28.1267 8.15031 28.1267 8.15031 28.2786 8.15015C29.7088 8.15122 31.087 8.19285 32.4837 8.50485C32.5663 8.52235 32.6489 8.53984 32.734 8.55787C33.2777 8.67365 33.8156 8.80324 34.3533 8.94099C34.4569 8.96657 34.5606 8.99215 34.6673 9.01851C36.865 9.5919 39.0577 10.5832 41.0136 11.6669C41.0136 11.7389 41.0136 11.8108 41.0136 11.885C40.9058 11.9208 40.7979 11.9567 40.6868 11.9936C34.9538 13.9302 29.0304 17.3341 25.1881 21.8481C24.8727 22.2178 24.5475 22.5744 24.2081 22.9249C23.7273 23.4271 23.2887 23.9519 22.8584 24.4923C22.783 24.5866 22.7075 24.681 22.6298 24.7781C21.7999 25.8234 21.0145 26.8874 20.3316 28.0223C20.2545 28.0223 20.1773 28.0223 20.0979 28.0223C20.0856 27.9543 20.0732 27.8864 20.0605 27.8163C20.0027 27.4988 19.9444 27.1813 19.8861 26.8638C19.8667 26.757 19.8474 26.6502 19.8274 26.5401C19.7201 25.9579 19.6013 25.3801 19.4648 24.8032C19.2109 23.7158 19.0193 22.6181 18.8187 21.5213C18.767 21.2395 18.715 20.9577 18.6628 20.676C18.6459 20.5845 18.629 20.493 18.6115 20.3987C18.5144 19.8817 18.4046 19.3698 18.2803 18.8577C18.0789 18.0054 17.9595 17.1457 17.8418 16.2805C17.8046 16.007 17.7664 15.7337 17.7281 15.4604C17.5428 14.1308 17.3905 12.8258 17.4031 11.4829C17.4036 11.3739 17.4041 11.2649 17.4047 11.1526C17.406 10.8879 17.4079 10.6232 17.4104 10.3585C20.8014 8.88597 24.242 8.15334 27.9778 8.15048Z" fill="#FFDA7E"/>
<path d="M62.8933 45.3318C63.039 45.3295 63.1846 45.3273 63.3347 45.325C64.6168 45.32 65.8489 45.4074 66.8369 46.2313C67.246 46.65 67.2615 47.0993 67.2418 47.6454C67.0543 48.7862 66.2566 49.6703 65.3179 50.3747C64.6651 50.7687 64.1049 50.9434 63.3315 51.0289C63.4294 52.6098 63.4294 52.6098 64.2339 53.9435C65.3226 54.7615 66.5114 55.0441 67.8886 54.9542C69.0488 54.7816 70.2405 54.3693 71.2406 53.7914C71.6211 53.5864 71.8972 53.6018 72.3288 53.6458C72.6063 53.7616 72.6063 53.7616 72.7962 53.9729C72.9282 54.3886 72.9731 54.6211 72.767 55.0155C72.4509 55.2769 72.2049 55.3861 71.8249 55.5471C71.0874 55.9008 70.852 56.393 70.5304 57.0762C69.6401 58.9031 68.0691 60.0915 66.1066 60.8149C64.2673 61.387 62.2399 61.1465 60.5267 60.3524C60.2428 60.2 59.9759 60.038 59.7092 59.8608C59.5863 59.7821 59.4634 59.7034 59.3368 59.6223C58.5902 58.9257 58.1838 58.2025 57.9638 57.2508C57.8465 56.7086 57.8465 56.7086 57.495 56.2912C57.2475 56.1766 57.2475 56.1766 56.9989 56.1144C56.788 56.0446 56.788 56.0446 56.5543 55.7175C56.505 55.2951 56.4881 55.0506 56.7369 54.6884C57.1447 54.4445 57.3573 54.4609 57.8397 54.5181C58.0504 54.5871 58.2597 54.6601 58.4677 54.7361C59.0429 54.9398 59.5658 55.1123 60.1766 54.9542C60.8312 54.5608 61.1502 54.013 61.3451 53.3187C61.3985 52.9371 61.4149 52.5582 61.4254 52.1738C61.4294 52.0737 61.4334 51.9736 61.4375 51.8705C61.4471 51.6264 61.4552 51.3822 61.4619 51.1379C61.3914 51.132 61.3208 51.126 61.2481 51.1198C61.1546 51.1112 61.0612 51.1026 60.9649 51.0937C60.8726 51.0854 60.7803 51.0772 60.6853 51.0687C59.6348 50.9166 58.7362 50.1341 58.1112 49.3729C57.9688 49.1659 57.8421 48.9584 57.7228 48.7392C57.6722 48.6514 57.6216 48.5637 57.5694 48.4734C57.3664 47.767 57.4436 47.1869 57.7972 46.5393C58.2264 46.0033 58.7142 45.8247 59.3952 45.6657C59.5418 45.6304 59.6883 45.5951 59.8393 45.5588C60.8609 45.3547 61.8509 45.3357 62.8933 45.3318Z" fill="#252423"/>
<path d="M65.2157 6.96471C65.3093 6.96443 65.403 6.96415 65.4994 6.96386C66.5367 6.96139 67.5577 6.97723 68.5897 7.08738C68.6392 9.80315 68.6605 12.4583 68.1822 15.1442C68.1278 15.452 68.0793 15.7598 68.0337 16.0688C67.6602 18.5544 67.1015 22.2163 64.8506 23.8789C64.4336 24.0735 64.0186 24.0678 63.5652 23.988C62.126 23.2351 61.5453 21.451 61.1114 20.0627C60.1963 16.687 59.899 13.1879 59.9283 9.71787C59.9295 9.47141 59.9306 9.22494 59.9315 8.97847C59.9341 8.38444 59.9379 7.79043 59.9429 7.19641C61.6464 6.8592 63.4807 6.96713 65.2157 6.96471Z" fill="#E2A203"/>
<path d="M115.212 47.6488C115.251 47.6488 115.289 47.6488 115.329 47.6488C115.432 48.307 115.463 48.9451 115.461 49.6098C115.461 49.7119 115.461 49.8141 115.462 49.9193C115.462 50.1345 115.461 50.3496 115.461 50.5648C115.46 50.8901 115.461 51.2155 115.462 51.5409C115.463 54.4391 115.463 54.4391 115.095 54.9542C101.918 52.8294 101.918 52.8294 99.7909 50.2597C99.6713 50.0476 99.6713 50.0476 99.6348 49.6455C99.8727 49.0851 100.196 48.8694 100.757 48.6203C102.911 47.8519 105.366 47.9214 107.632 47.935C107.843 47.9355 107.843 47.9355 108.058 47.936C110.013 47.9413 111.935 47.9912 113.87 48.2634C114.316 48.3244 114.764 48.3678 115.212 48.4121C115.212 48.1602 115.212 47.9083 115.212 47.6488Z" fill="#C99000"/>
<path d="M20.6391 48.7107C21.0204 48.7119 21.4017 48.7107 21.783 48.7093C22.9211 48.7085 24.0506 48.7259 25.1835 48.8345C25.2695 48.8428 25.3555 48.851 25.4442 48.8594C26.6493 48.9912 28.0639 49.245 28.8614 50.1566C28.9637 50.4701 28.9637 50.4701 28.8614 50.8108C27.9372 52.2894 25.6856 52.8625 24.0707 53.4277C23.9762 53.4624 23.8817 53.4971 23.7844 53.5329C22.7965 53.8864 21.7808 54.1193 20.7551 54.3545C20.6619 54.376 20.5687 54.3976 20.4727 54.4198C19.0318 54.7524 17.591 55.0602 16.125 55.2813C16.0196 55.2973 15.9141 55.3133 15.8055 55.3297C15.2903 55.4068 14.7748 55.4816 14.2587 55.5522C14.1788 55.5631 14.099 55.574 14.0167 55.5853C13.7881 55.6084 13.7881 55.6084 13.3207 55.6084C13.1039 54.3277 13.0536 53.0766 13.0629 51.7816C13.0651 51.4666 13.0653 51.1516 13.0653 50.8366C13.0659 50.6362 13.0666 50.4358 13.0674 50.2354C13.0675 50.1413 13.0676 50.0471 13.0677 49.9501C13.0734 49.297 13.0734 49.297 13.2038 49.1753C15.649 48.7852 18.1641 48.7016 20.6391 48.7107Z" fill="#C99000"/>
<path d="M48.3423 31.9828C48.7685 32.3119 49.1573 32.6687 49.5435 33.038C49.6856 33.1691 49.6856 33.1691 49.8306 33.3029C51.5936 35.0126 52.54 37.3707 52.5085 39.7233C52.5072 39.8527 52.5059 39.9821 52.5046 40.1155C52.4533 42.7567 51.4161 44.9171 49.4846 46.8413C47.2515 48.85 44.5626 49.6593 41.5079 49.6272C39.0055 49.576 36.8096 48.6373 34.9375 47.1036C34.8486 47.0311 34.7597 46.9586 34.6682 46.8839C32.8599 45.3074 31.6184 42.7891 31.521 40.4874C31.4565 37.6541 32.3967 35.1545 34.4701 33.038C38.084 29.57 44.1815 28.9973 48.3423 31.9828ZM35.8723 33.5832C35.7516 33.6801 35.7516 33.6801 35.6285 33.7791C34.5385 34.7198 33.7805 35.9902 33.3016 37.2904C33.2644 37.3879 33.2272 37.4855 33.1889 37.586C32.4863 39.7432 33.0127 42.1553 34.083 44.1188C35.3197 46.1134 37.2569 47.4217 39.5813 48.1386C42.2176 48.6919 44.7863 48.2636 47.0897 46.9946C47.4684 46.7638 47.8071 46.5154 48.1413 46.2314C48.2297 46.1576 48.3181 46.0838 48.4092 46.0077C49.8314 44.7562 50.6741 43.0975 51.0625 41.3247C51.0839 41.2411 51.1053 41.1575 51.1273 41.0713C51.543 38.7404 50.7295 36.5595 49.3025 34.6667C47.9241 32.9958 45.9061 31.8278 43.6696 31.4463C43.1565 31.3947 42.6538 31.3865 42.1382 31.3888C41.9981 31.3882 41.9981 31.3882 41.8552 31.3875C39.5521 31.391 37.6015 32.1692 35.8723 33.5832Z" fill="#070E2E"/>
<path d="M85.3793 30.278C85.5014 30.2774 85.6235 30.2768 85.7494 30.2761C88.551 30.3005 91.0215 31.3352 93.0109 33.147C95.2944 35.3483 96.0054 37.8947 95.964 40.8928C95.9363 41.7084 95.7736 42.4111 95.4647 43.1783C95.4233 43.2836 95.4233 43.2836 95.3811 43.3909C94.3704 45.9103 92.4598 47.8107 89.8534 48.953C87.2982 50.0208 84.3728 50.124 81.7392 49.2277C80.6373 48.7971 79.664 48.262 78.7555 47.5398C78.6693 47.4751 78.5831 47.4105 78.4944 47.3438C76.805 46.0283 75.7858 44.1625 75.25 42.197C75.2238 42.1134 75.1976 42.0297 75.1706 41.9436C74.5254 39.5807 75.2159 36.9846 76.5061 34.9325C76.956 34.2715 77.4715 33.7079 78.0544 33.147C78.116 33.0815 78.1776 33.016 78.2411 32.9485C80.0669 31.0748 82.7448 30.2906 85.3793 30.278ZM78.7098 34.2497C76.8718 36.2604 76.2143 38.5097 76.4185 41.1066C76.6267 42.8324 77.4323 44.3789 78.6386 45.6862C78.7189 45.7733 78.7992 45.8604 78.8819 45.9502C80.4313 47.506 82.6608 48.4395 84.9219 48.556C87.3931 48.6333 89.6068 47.9727 91.4919 46.4494C91.5881 46.3803 91.6844 46.3111 91.7835 46.2399C93.2768 45.0833 94.3813 43.0947 94.5671 41.2913C94.7126 38.8051 94.3395 36.5442 92.5526 34.5968C92.4725 34.5142 92.3924 34.4315 92.3098 34.3464C92.1932 34.2224 92.1932 34.2224 92.0743 34.096C90.8744 32.8933 89.4081 32.2159 87.7527 31.7295C87.6538 31.7004 87.5548 31.6713 87.4529 31.6414C84.3502 30.9113 80.8625 32.1214 78.7098 34.2497Z" fill="#070E2E"/>
<path d="M90.8149 33.0696C92.5648 34.2804 93.6927 35.7862 94.2961 37.7265C94.3385 37.8552 94.3808 37.984 94.4244 38.1166C94.9745 40.2372 94.5406 42.4355 93.4417 44.3163C92.0457 46.374 89.9917 47.8373 87.4356 48.4088C85.099 48.8512 82.7006 48.4432 80.6687 47.2944C80.0118 46.8872 79.434 46.4194 78.8722 45.9042C78.7624 45.8038 78.7624 45.8038 78.6504 45.7014C76.9007 43.9727 76.3493 41.7197 76.3869 39.4089C76.4735 37.1311 77.6881 35.1724 79.4199 33.6172C80.4484 32.7856 81.662 32.2045 82.9619 31.8385C83.0652 31.806 83.1685 31.7736 83.275 31.7401C85.811 31.0289 88.6902 31.6637 90.8149 33.0696ZM82.6113 33.256C82.4945 33.301 82.3776 33.3459 82.2571 33.3923C80.3651 34.1932 79.0084 35.5996 78.1967 37.3691C77.435 39.2805 77.5221 41.2206 78.4029 43.0703C79.315 44.8756 80.8536 46.1225 82.8044 46.9C84.8668 47.5777 87.0767 47.3077 89.0389 46.5277C90.922 45.6666 92.219 44.0621 92.925 42.2545C93.5733 40.2627 93.3462 38.2874 92.3038 36.45C91.2058 34.719 89.5774 33.5584 87.5085 33.0081C87.3962 32.982 87.284 32.9558 87.1684 32.9289C87.0815 32.9079 86.9946 32.887 86.905 32.8654C85.469 32.6615 83.9502 32.7186 82.6113 33.256Z" fill="#F9EA01"/>
<path d="M48.3874 33.6636C50.0215 35.0699 51.0897 37.2567 51.22 39.3143C51.2961 41.5348 50.533 43.8489 48.9082 45.5021C48.6947 45.7121 48.4775 45.9173 48.2582 46.1222C48.1898 46.1873 48.1214 46.2524 48.051 46.3194C46.4771 47.6949 44.2668 48.3222 42.1602 48.3234C42.0445 48.3247 41.9287 48.3261 41.8094 48.3275C39.3561 48.332 37.1439 47.4078 35.405 45.7951C33.5435 43.9418 32.8768 41.6479 32.9197 39.1554C32.9947 37.2957 33.9554 35.4874 35.2881 34.1283C35.3571 34.0539 35.4261 33.9796 35.4972 33.903C39.0003 30.3488 44.6642 30.7952 48.3874 33.6636ZM35.8623 35.3788C34.8034 36.7077 34.3117 38.0978 34.3241 39.7368C34.3232 39.8561 34.3223 39.9753 34.3214 40.0982C34.3262 41.9756 35.1519 43.6876 36.5296 45.0523C38.1652 46.5113 40.1071 47.1503 42.3293 47.1358C44.337 47.0899 46.2643 46.2281 47.6863 44.9135C49.2764 43.3267 49.8367 41.424 49.8023 39.2849C49.7384 37.6026 48.8232 35.8641 47.5571 34.6735C45.962 33.2903 43.8847 32.5188 41.7068 32.5507C39.365 32.6531 37.3499 33.7359 35.8623 35.3788Z" fill="#F9EA00"/>
<path d="M57.7229 7.52345C57.5687 7.55944 57.4145 7.59542 57.2556 7.63249C57.2562 7.74785 57.2568 7.86321 57.2574 7.98207C57.2595 8.41613 57.2609 8.8502 57.262 9.28427C57.2626 9.471 57.2633 9.65773 57.2644 9.84446C57.2777 12.3401 57.2577 15.6431 55.3353 17.6178C55.0634 17.8577 54.8274 17.9847 54.4658 18.0727C53.8054 17.9248 53.3688 17.5112 52.997 16.9917C52.8377 16.7122 52.7071 16.4315 52.5816 16.1373C52.5325 16.0233 52.4834 15.9093 52.4328 15.7919C51.6599 13.8227 51.3852 11.6629 51.4059 9.5747C51.4066 9.419 51.4066 9.419 51.4075 9.26015C51.4088 9.00835 51.4107 8.75657 51.4132 8.50478C52.7045 8.08901 54.0281 7.88846 55.3787 7.72108C55.5276 7.70176 55.6765 7.68243 55.8299 7.66252C56.4667 7.58189 57.0792 7.51232 57.7229 7.52345Z" fill="#E2A203"/>
<path d="M62.8934 45.3318C63.039 45.3295 63.1847 45.3273 63.3348 45.325C64.6169 45.32 65.849 45.4074 66.837 46.2313C67.246 46.65 67.2615 47.0993 67.2419 47.6454C67.0544 48.7861 66.2568 49.6705 65.318 50.3747C63.8601 51.2481 62.0653 51.3458 60.3866 51.0783C59.2386 50.712 58.255 49.7367 57.7229 48.7392C57.647 48.6076 57.647 48.6076 57.5695 48.4734C57.3664 47.767 57.4437 47.1869 57.7973 46.5393C58.2265 46.0033 58.7143 45.8247 59.3953 45.6657C59.5418 45.6304 59.6884 45.5951 59.8394 45.5588C60.861 45.3547 61.851 45.3357 62.8934 45.3318Z" fill="#040B2F"/>
<path d="M71.7446 7.41449C73.8952 7.66458 76.0156 8.01785 78.0544 8.72292C78.0191 8.81309 77.9837 8.90325 77.9473 8.99615C77.8107 9.40743 77.7325 9.81462 77.6651 10.2392C77.637 10.4086 77.6088 10.5781 77.5806 10.7475C77.5662 10.8353 77.5518 10.9232 77.5369 11.0137C76.5558 16.9545 76.5558 16.9545 75.2501 18.2091C74.8922 18.2363 74.8922 18.2363 74.549 18.1C73.6976 17.2333 73.3989 15.8065 73.103 14.6927C73.0692 14.5664 73.0355 14.4401 73.0007 14.31C72.687 13.0886 72.4518 11.8554 72.2266 10.6174C72.209 10.5204 72.1913 10.4235 72.1731 10.3235C71.9982 9.35608 71.829 8.39316 71.7446 7.41449Z" fill="#E2A203"/>
<path d="M111.272 122.185C111.486 122.183 111.486 122.183 111.704 122.181C111.857 122.182 112.009 122.182 112.167 122.182C112.326 122.182 112.486 122.181 112.646 122.18C112.98 122.18 113.314 122.18 113.648 122.181C114.074 122.182 114.501 122.18 114.928 122.177C115.257 122.175 115.587 122.175 115.916 122.175C116.15 122.175 116.383 122.174 116.617 122.172C117.93 122.181 117.93 122.181 118.484 122.666C118.924 123.132 119.119 123.422 119.108 124.058C119.036 124.498 118.821 124.862 118.484 125.173C117.701 125.597 116.912 125.55 116.026 125.548C115.866 125.548 115.707 125.549 115.547 125.55C115.214 125.551 114.881 125.55 114.547 125.549C114.122 125.548 113.696 125.55 113.27 125.553C112.941 125.555 112.612 125.555 112.283 125.555C112.05 125.555 111.817 125.557 111.584 125.558C110.276 125.549 110.276 125.549 109.72 125.064C109.287 124.605 109.204 124.173 109.213 123.576C109.28 123.149 109.495 122.843 109.837 122.557C110.335 122.288 110.698 122.188 111.272 122.185Z" fill="#242424"/>
<path d="M68.2483 162.342C68.8167 162.639 69.179 162.974 69.4076 163.554C69.4779 164.054 69.4759 164.55 69.4738 165.053C69.4744 165.199 69.4752 165.345 69.476 165.491C69.4772 165.796 69.4767 166.101 69.475 166.406C69.473 166.794 69.4757 167.183 69.4798 167.572C69.4824 167.873 69.4822 168.174 69.4813 168.475C69.4811 168.687 69.4834 168.9 69.4858 169.112C69.477 169.899 69.4082 170.482 68.8234 171.078C68.3362 171.416 67.8466 171.48 67.251 171.466C66.7175 171.356 66.3587 171.028 66.0191 170.642C65.8921 170.286 65.8851 170.021 65.8815 169.647C65.88 169.51 65.8785 169.372 65.877 169.23C65.876 169.08 65.8752 168.929 65.8744 168.779C65.8739 168.703 65.8734 168.627 65.8729 168.549C65.8705 168.147 65.8688 167.746 65.8677 167.344C65.8664 166.93 65.8624 166.516 65.8578 166.103C65.8547 165.783 65.8537 165.464 65.8533 165.145C65.8527 164.993 65.8514 164.84 65.8492 164.688C65.8464 164.474 65.8468 164.26 65.8473 164.046C65.8466 163.924 65.8459 163.803 65.8452 163.678C65.9261 163.193 66.1701 162.844 66.5654 162.523C67.1314 162.228 67.617 162.092 68.2483 162.342Z" fill="#252525"/>
<path d="M67.1874 75.8891C67.7063 76.1312 68.0314 76.425 68.3559 76.8704C68.4168 77.1958 68.4168 77.1958 68.4201 77.5608C68.4223 77.698 68.4245 77.8352 68.4268 77.9766C68.4268 78.1255 68.4266 78.2744 68.4262 78.4234C68.4271 78.5772 68.4281 78.7311 68.4292 78.8849C68.431 79.207 68.4309 79.529 68.4297 79.8511C68.4283 80.2624 68.4323 80.6735 68.4377 81.0847C68.4412 81.4024 68.4414 81.7201 68.4406 82.0378C68.4407 82.1893 68.442 82.3408 68.4443 82.4924C68.4625 83.8213 68.4625 83.8213 68.0174 84.3195C67.5742 84.7167 67.2229 84.8165 66.6105 84.871C66.1013 84.8549 65.8204 84.7139 65.4347 84.3939C64.7601 83.683 64.7664 82.9668 64.777 82.0522C64.7767 81.9122 64.7764 81.7722 64.7761 81.628C64.7758 81.333 64.7775 81.0382 64.7807 80.7433C64.7847 80.3666 64.784 79.9901 64.7818 79.6134C64.7803 79.2519 64.7824 78.8905 64.7843 78.529C64.7837 78.3944 64.7831 78.2598 64.7825 78.1211C64.7965 77.1715 64.9442 76.8162 65.6246 76.1208C66.1567 75.8082 66.574 75.7884 67.1874 75.8891Z" fill="#252525"/>
<path d="M18.0326 122.089C18.1824 122.087 18.3321 122.086 18.4864 122.085C18.6496 122.084 18.8127 122.084 18.9759 122.084C19.1438 122.083 19.3118 122.082 19.4797 122.082C19.8315 122.08 20.1833 122.08 20.5352 122.08C20.9849 122.08 21.4346 122.077 21.8844 122.073C22.2312 122.071 22.578 122.071 22.9249 122.071C23.0906 122.07 23.2564 122.069 23.4221 122.068C23.6545 122.066 23.8868 122.066 24.1192 122.068C24.2511 122.067 24.3831 122.067 24.5191 122.067C25.0742 122.148 25.4411 122.4 25.8087 122.788C26.0566 123.379 26.0183 123.961 25.816 124.56C25.5218 124.932 25.2343 125.132 24.7717 125.283C24.2086 125.347 23.647 125.344 23.0806 125.34C22.9158 125.341 22.751 125.341 22.5862 125.342C22.2419 125.342 21.8977 125.341 21.5535 125.339C21.1135 125.337 20.6737 125.338 20.2338 125.341C19.8938 125.343 19.5539 125.342 19.214 125.341C19.0518 125.341 18.8897 125.341 18.7275 125.342C17.1581 125.35 17.1581 125.35 16.5924 124.846C16.1794 124.349 16.1764 123.918 16.1925 123.308C16.2681 122.825 16.4337 122.655 16.8261 122.339C17.2281 122.1 17.5609 122.092 18.0326 122.089Z" fill="#222222"/>
<path d="M62.6304 55.0632C62.7158 55.1208 62.7158 55.1208 62.8029 55.1795C63.3477 55.5335 63.9094 55.8439 64.5 56.1263C64.6301 56.1887 64.7602 56.2511 64.8943 56.3154C65.7756 56.6593 66.5973 56.7302 67.5453 56.7124C67.6465 56.7114 67.7476 56.7104 67.8518 56.7094C68.0978 56.7069 68.3437 56.703 68.5896 56.6988C67.7323 57.9911 66.7789 58.8438 65.1572 59.2475C63.795 59.4678 62.3889 59.3831 61.1757 58.724C60.5973 58.3379 60.0872 57.8735 59.826 57.244C59.826 57.1 59.826 56.9561 59.826 56.8078C59.8996 56.7918 59.9731 56.7758 60.0488 56.7593C61.1996 56.4778 61.9065 55.9281 62.6304 55.0632Z" fill="#F5888B"/>
<path d="M44.9864 34.8916C45.5034 35.1328 45.8271 35.4311 46.1549 35.8729C46.3525 36.4263 46.3376 36.8891 46.0818 37.4199C45.776 37.9439 45.3542 38.1936 44.7527 38.3807C44.1059 38.4518 43.7302 38.3343 43.2104 37.9961C42.8058 37.6874 42.571 37.4101 42.4888 36.9203C42.4568 36.2982 42.5461 35.9175 43 35.4368C43.6574 34.8963 44.1205 34.8021 44.9864 34.8916Z" fill="#F9F9FA"/>
<path d="M88.4626 35.0769C89.0278 35.3079 89.3528 35.5576 89.6224 36.091C89.7828 36.6182 89.7964 37.0394 89.5494 37.5425C89.2523 38.0241 88.9062 38.3127 88.3371 38.4898C87.6809 38.5299 87.2648 38.5133 86.7012 38.1627C86.24 37.7369 86.0183 37.3844 85.9636 36.7724C85.9741 36.2866 86.1259 35.9137 86.4675 35.5458C87.0805 35.0545 87.6598 34.8243 88.4626 35.0769Z" fill="#FAFAFB"/>
</g>
<defs>
<clipPath id="clip0_649_1347">
<rect width="129" height="181" fill="white"/>
</clipPath>
</defs>
</svg>
